<svg width="233" height="132" viewBox="0 0 233 132" fill="none" xmlns="http://www.w3.org/2000/svg">
<g filter="url(#filter0_d)">
<rect x="10.6865" y="7" width="211.843" height="112" rx="5" fill="white"/>
<rect x="11.1865" y="7.5" width="210.843" height="111" rx="4.5" stroke="#E0E0E0"/>
</g>
<path d="M83.1413 52.3295C83.1176 52.1636 82.9754 52.0688 82.8568 52.0688C82.7383 52.0688 80.392 52.0214 80.392 52.0214C80.392 52.0214 78.4248 50.1253 78.2352 49.912C78.0456 49.7224 77.6664 49.7698 77.5242 49.8172C77.5242 49.8172 77.1449 49.9357 76.5287 50.1253C76.4339 49.7935 76.268 49.3906 76.0547 48.964C75.3674 47.6367 74.3245 46.9257 73.0921 46.9257C72.9973 46.9257 72.9262 46.9257 72.8314 46.9494C72.784 46.902 72.7603 46.8546 72.7129 46.8309C72.1678 46.2621 71.4804 45.9777 70.6509 46.0014C69.0629 46.0488 67.475 47.2101 66.1714 49.2484C65.2708 50.6941 64.5835 52.4954 64.3702 53.8938C62.5452 54.4626 61.2654 54.8655 61.218 54.8655C60.2936 55.1499 60.2699 55.1736 60.1514 56.0505C60.104 56.7142 57.6865 75.4141 57.6865 75.4141L77.9745 78.9219L86.7675 76.7414C86.7438 76.7414 83.165 52.4954 83.1413 52.3295ZM75.5096 50.4571C75.0356 50.5993 74.5141 50.7652 73.9453 50.9549C73.9453 50.149 73.8268 49.0114 73.4713 48.0633C74.68 48.253 75.2726 49.6276 75.5096 50.4571ZM72.8788 51.263C71.8122 51.5948 70.6509 51.9503 69.4896 52.3058C69.8214 51.0497 70.4376 49.8172 71.196 48.9877C71.4804 48.6796 71.8833 48.3478 72.3337 48.1581C72.8077 49.0825 72.9025 50.386 72.8788 51.263ZM70.6983 47.0679C71.0775 47.0679 71.3856 47.139 71.6463 47.3286C71.2197 47.5419 70.7931 47.8737 70.4139 48.3004C69.3948 49.3906 68.6126 51.0734 68.3045 52.7087C67.3328 53.0168 66.3847 53.3012 65.5315 53.5619C66.1003 50.9786 68.2571 47.139 70.6983 47.0679Z" fill="#95BF47"/>
<path d="M82.8569 52.0683C82.7384 52.0683 80.392 52.0209 80.392 52.0209C80.392 52.0209 78.4248 50.1248 78.2352 49.9115C78.1641 49.8404 78.0693 49.793 77.9745 49.793V78.9213L86.7675 76.7409C86.7675 76.7409 83.1887 52.4949 83.165 52.329C83.1176 52.1631 82.9754 52.0683 82.8569 52.0683Z" fill="#5E8E3E"/>
<path d="M73.0921 56.5939L72.073 60.4097C72.073 60.4097 70.9353 59.8883 69.5844 59.9831C67.5935 60.1016 67.5935 61.3577 67.5935 61.6659C67.712 63.3723 72.1915 63.7515 72.4522 67.757C72.6418 70.9092 70.7931 73.066 68.0912 73.2319C64.8679 73.3978 63.0903 71.5017 63.0903 71.5017L63.7777 68.5865C63.7777 68.5865 65.5789 69.9375 67.001 69.8427C67.9253 69.7953 68.2808 69.0131 68.2334 68.4917C68.0912 66.2638 64.4413 66.406 64.2043 62.7324C64.0147 59.6513 66.0292 56.5465 70.485 56.2621C72.2152 56.1436 73.0921 56.5939 73.0921 56.5939Z" fill="white"/>
<path d="M98.6653 64.7263C97.6462 64.1812 97.1248 63.7072 97.1248 63.0673C97.1248 62.2614 97.8595 61.74 98.9971 61.74C100.324 61.74 101.509 62.2851 101.509 62.2851L102.434 59.441C102.434 59.441 101.581 58.7773 99.0682 58.7773C95.5605 58.7773 93.1193 60.7919 93.1193 63.6124C93.1193 65.2241 94.257 66.4328 95.7738 67.3098C97.0063 67.9971 97.4329 68.4948 97.4329 69.2296C97.4329 69.988 96.8167 70.6042 95.679 70.6042C93.9963 70.6042 92.3846 69.7273 92.3846 69.7273L91.3892 72.5714C91.3892 72.5714 92.8586 73.5669 95.3472 73.5669C98.9497 73.5669 101.557 71.7893 101.557 68.5896C101.533 66.8595 100.23 65.627 98.6653 64.7263Z" fill="black"/>
<path d="M113.028 58.7302C111.25 58.7302 109.852 59.5834 108.786 60.8632L108.738 60.8395L110.279 52.7812H106.273L102.363 73.3062H106.368L107.695 66.2907C108.217 63.6362 109.591 62.0009 110.871 62.0009C111.772 62.0009 112.127 62.6171 112.127 63.494C112.127 64.0392 112.08 64.7265 111.962 65.2716L110.445 73.3062H114.45L116.014 65.0109C116.18 64.134 116.299 63.0911 116.299 62.3801C116.322 60.1048 115.137 58.7302 113.028 58.7302Z" fill="black"/>
<path d="M125.4 58.7305C120.565 58.7305 117.366 63.0915 117.366 67.9502C117.366 71.0551 119.285 73.5674 122.888 73.5674C127.628 73.5674 130.828 69.3249 130.828 64.3476C130.852 61.4798 129.169 58.7305 125.4 58.7305ZM123.433 70.5099C122.058 70.5099 121.49 69.3486 121.49 67.8791C121.49 65.5801 122.675 61.8353 124.855 61.8353C126.277 61.8353 126.751 63.0678 126.751 64.2528C126.751 66.7178 125.543 70.5099 123.433 70.5099Z" fill="black"/>
<path d="M141.113 58.7305C138.411 58.7305 136.871 61.1243 136.871 61.1243H136.823L137.06 58.9675H133.505C133.339 60.4133 133.008 62.6412 132.7 64.3003L129.903 78.9951H133.908L135.022 73.0461H135.117C135.117 73.0461 135.947 73.5675 137.463 73.5675C142.18 73.5675 145.261 68.7324 145.261 63.85C145.261 61.148 144.052 58.7305 141.113 58.7305ZM137.274 70.5574C136.231 70.5574 135.615 69.9649 135.615 69.9649L136.278 66.2201C136.752 63.7077 138.056 62.0487 139.454 62.0487C140.687 62.0487 141.066 63.1863 141.066 64.2529C141.066 66.86 139.525 70.5574 137.274 70.5574Z" fill="black"/>
<path d="M150.997 52.9688C149.717 52.9688 148.698 53.9879 148.698 55.2915C148.698 56.4766 149.456 57.3062 150.594 57.3062H150.641C151.897 57.3062 152.964 56.4529 152.988 54.9834C152.988 53.822 152.206 52.9688 150.997 52.9688Z" fill="black"/>
<path d="M145.379 73.2832H149.385L152.11 59.0625H148.081L145.379 73.2832Z" fill="black"/>
<path d="M162.326 59.0374H159.529L159.671 58.3738C159.908 56.9992 160.714 55.7905 162.065 55.7905C162.776 55.7905 163.345 56.0038 163.345 56.0038L164.127 52.8516C164.127 52.8516 163.44 52.4961 161.947 52.4961C160.525 52.4961 159.103 52.899 158.012 53.8233C156.638 54.9847 155.998 56.6674 155.69 58.3738L155.571 59.0374H153.699L153.106 62.0711H154.979L152.846 73.3052H156.851L158.984 62.0711H161.757L162.326 59.0374Z" fill="black"/>
<path d="M171.996 59.0625C171.996 59.0625 169.484 65.3906 168.37 68.851H168.322C168.251 67.737 167.327 59.0625 167.327 59.0625H163.108L165.526 72.1217C165.573 72.4061 165.549 72.5957 165.431 72.7853C164.957 73.6859 164.175 74.5629 163.25 75.2028C162.492 75.7479 161.639 76.1034 160.975 76.3404L162.089 79.7534C162.895 79.5875 164.601 78.9001 166.023 77.5729C167.848 75.8664 169.555 73.2119 171.285 69.6094L176.191 59.0625H171.996Z" fill="black"/>
<defs>
<filter id="filter0_d" x="0.686523" y="0" width="231.843" height="132" filterUnits="userSpaceOnUse" color-interpolation-filters="sRGB">
<feFlood flood-opacity="0" result="BackgroundImageFix"/>
<feColorMatrix in="SourceAlpha" type="matrix" values="0 0 0 0 0 0 0 0 0 0 0 0 0 0 0 0 0 0 127 0"/>
<feOffset dy="3"/>
<feGaussianBlur stdDeviation="5"/>
<feColorMatrix type="matrix" values="0 0 0 0 0 0 0 0 0 0 0 0 0 0 0 0 0 0 0.1 0"/>
<feBlend mode="normal" in2="BackgroundImageFix" result="effect1_dropShadow"/>
<feBlend mode="normal" in="SourceGraphic" in2="effect1_dropShadow" result="shape"/>
</filter>
</defs>
</svg>
