<svg width="233" height="132" viewBox="0 0 233 132" fill="none" xmlns="http://www.w3.org/2000/svg">
<g filter="url(#filter0_d)">
<rect x="10.5293" y="7" width="211.843" height="112" rx="5" fill="white"/>
<rect x="11.0293" y="7.5" width="210.843" height="111" rx="4.5" stroke="#E0E0E0"/>
</g>
<path d="M59.4832 42L41.5293 52.3634V73.063L46.6544 76.0259L46.6183 55.3218L59.447 47.9168L72.2757 55.3218V76.0169L77.4008 73.063V52.3453L59.4832 42Z" fill="#F26322"/>
<path d="M62.0263 76.0199L59.466 77.5082L56.8921 76.0335V55.3203L51.7715 58.2787L51.7805 78.9829L59.4615 83.4204L67.1515 78.9829V58.2787L62.0263 55.3203V76.0199Z" fill="#F26322"/>
<path d="M89.1395 52.4922L96.1871 70.2966H96.2459L103.122 52.4922H105.804V72.8931H103.949V55.1158H103.891C103.794 55.4385 103.69 55.7612 103.579 56.0838C103.482 56.3492 103.372 56.6432 103.248 56.9659C103.126 57.2916 103.013 57.5947 102.923 57.8796L97.0149 72.8931H95.3322L89.3656 57.8842C89.251 57.6188 89.1365 57.3293 89.0219 57.0157C88.9073 56.702 88.8017 56.402 88.7052 56.1155C88.5906 55.7717 88.476 55.4385 88.3614 55.1158H88.3026V72.8931H86.543V52.4922H89.1395Z" fill="#4D4D4D"/>
<path d="M111.196 72.9777C110.642 72.8247 110.124 72.5633 109.672 72.2086C109.24 71.8633 108.894 71.4238 108.658 70.9239C108.411 70.4113 108.287 69.8126 108.287 69.1281C108.287 68.2535 108.449 67.5403 108.771 66.9884C109.09 66.4431 109.541 65.9871 110.083 65.663C110.635 65.3313 111.278 65.0795 112.01 64.9076C112.786 64.7296 113.571 64.5967 114.363 64.5095C115.086 64.4341 115.7 64.3527 116.204 64.2652C116.707 64.1778 117.116 64.0677 117.43 63.935C117.743 63.8023 117.971 63.6259 118.113 63.4057C118.254 63.1856 118.325 62.8855 118.325 62.5055V62.2205C118.325 61.2133 118.021 60.4669 117.411 59.9814C116.802 59.4958 115.928 59.2531 114.788 59.2531C112.161 59.2531 110.781 60.3478 110.649 62.5372H108.907C109.004 61.1108 109.531 59.9693 110.49 59.1128C111.449 58.2564 112.88 57.8281 114.783 57.8281C116.4 57.8281 117.674 58.1855 118.606 58.9002C119.537 59.6149 120.003 60.7805 120.003 62.397V70.4128C120.003 70.8501 120.085 71.1682 120.248 71.3673C120.411 71.5663 120.653 71.6764 120.976 71.6975C121.076 71.6972 121.176 71.6881 121.275 71.6703C121.379 71.6522 121.496 71.6206 121.632 71.5844H121.718V72.8691C121.561 72.9341 121.399 72.987 121.234 73.0274C120.999 73.0799 120.759 73.1042 120.519 73.0998C119.874 73.0998 119.36 72.9324 118.977 72.5977C118.594 72.2629 118.384 71.7352 118.348 71.0144V70.7023H118.271C118.039 71.0145 117.787 71.3108 117.515 71.5889C117.197 71.9114 116.836 72.1898 116.443 72.4167C115.986 72.679 115.497 72.8798 114.987 73.0138C114.435 73.1677 113.808 73.243 113.105 73.24C112.458 73.2451 111.814 73.1582 111.192 72.9822L111.196 72.9777ZM115.543 71.4261C116.161 71.1697 116.68 70.841 117.099 70.4399C117.493 70.0697 117.807 69.6234 118.023 69.1281C118.24 68.6328 118.353 68.0988 118.357 67.5584V64.903C117.88 65.1684 117.304 65.3735 116.629 65.5182C115.953 65.663 115.254 65.7821 114.53 65.8756C113.903 65.9721 113.322 66.0716 112.788 66.1742C112.255 66.2767 111.793 66.4426 111.404 66.6718C111.02 66.895 110.7 67.2146 110.477 67.5991C110.248 67.9881 110.133 68.4978 110.133 69.1281C110.133 69.6408 110.224 70.069 110.404 70.4128C110.574 70.7415 110.819 71.0253 111.119 71.2406C111.432 71.4576 111.786 71.6084 112.16 71.6839C112.573 71.7704 112.995 71.8129 113.417 71.8106C114.216 71.8106 114.925 71.6824 115.543 71.4261Z" fill="#4D4D4D"/>
<path d="M124.749 76.962C123.759 76.2291 123.198 75.3109 123.066 74.2071H124.776C124.929 75.0636 125.391 75.6773 126.16 76.0482C126.929 76.4191 127.847 76.6046 128.915 76.6046C130.495 76.6046 131.66 76.2291 132.411 75.4782C133.162 74.7273 133.538 73.6945 133.538 72.3797V70.041H133.452C132.9 70.8763 132.262 71.5127 131.538 71.9499C130.815 72.3872 129.892 72.6058 128.77 72.6058C127.799 72.6058 126.924 72.4249 126.146 72.063C125.378 71.711 124.695 71.1954 124.147 70.5522C123.595 69.9068 123.171 69.1318 122.876 68.2271C122.58 67.3224 122.432 66.3287 122.432 65.2461C122.432 64.0489 122.603 62.9889 122.944 62.0661C123.284 61.1433 123.741 60.3683 124.314 59.741C124.872 59.1236 125.56 58.637 126.327 58.3161C127.099 57.9928 127.928 57.8282 128.765 57.8321C129.905 57.8321 130.846 58.0658 131.588 58.5332C132.33 59.0007 132.948 59.6324 133.443 60.4286H133.529V58.1397H135.279V72.3209C135.279 73.9553 134.822 75.2777 133.909 76.288C132.787 77.4671 131.142 78.0566 128.974 78.0566C127.146 78.0566 125.738 77.6902 124.749 76.9574V76.962ZM132.484 69.4937C133.265 68.408 133.655 66.9816 133.655 65.2144C133.655 64.3399 133.56 63.5407 133.37 62.817C133.18 62.0932 132.885 61.4705 132.484 60.9488C132.089 60.4301 131.576 60.0142 130.986 59.7365C130.386 59.45 129.687 59.3068 128.888 59.3068C127.422 59.3068 126.285 59.8481 125.477 60.9307C124.669 62.0133 124.265 63.4593 124.265 65.2687C124.258 66.0528 124.354 66.8344 124.55 67.5938C124.739 68.3055 125.024 68.9237 125.404 69.4484C125.776 69.9636 126.264 70.3837 126.829 70.6743C127.399 70.9698 128.075 71.1176 128.856 71.1176C130.49 71.1176 131.698 70.5748 132.479 69.4891" fill="#4D4D4D"/>
<path d="M141.413 72.6786C140.582 72.3072 139.846 71.752 139.26 71.0547C138.681 70.3611 138.239 69.5423 137.935 68.5984C137.63 67.6545 137.478 66.6322 137.478 65.5315C137.478 64.4277 137.639 63.4054 137.962 62.4645C138.284 61.5236 138.735 60.7064 139.314 60.0128C139.89 59.3213 140.611 58.7652 141.427 58.3843C142.253 57.9953 143.18 57.8008 144.209 57.8008C145.388 57.8008 146.382 58.0239 147.19 58.4703C147.981 58.9014 148.656 59.5176 149.158 60.2661C149.661 61.017 150.018 61.878 150.23 62.849C150.44 63.8333 150.544 64.8372 150.542 65.8436H139.301C139.312 66.6314 139.432 67.4138 139.658 68.1687C139.857 68.8429 140.176 69.4758 140.599 70.0369C141.011 70.5733 141.544 71.0043 142.155 71.2944C142.782 71.599 143.515 71.7513 144.354 71.7513C145.59 71.7513 146.546 71.4513 147.221 70.8511C147.897 70.251 148.376 69.4473 148.66 68.4401H150.374C150.052 69.9057 149.385 71.0758 148.375 71.9504C147.365 72.8249 146.024 73.2622 144.354 73.2622C143.25 73.2622 142.27 73.0677 141.413 72.6786ZM148.375 62.4057C148.185 61.7694 147.909 61.2175 147.547 60.7501C147.183 60.2813 146.713 59.9048 146.177 59.6509C145.625 59.3855 144.969 59.2528 144.209 59.2528C143.449 59.2528 142.787 59.3855 142.223 59.6509C141.659 59.9056 141.157 60.2808 140.753 60.7501C140.342 61.2378 140.019 61.7935 139.798 62.3922C139.553 63.0533 139.395 63.7437 139.328 64.4458H148.687C148.674 63.755 148.569 63.0689 148.375 62.4057Z" fill="#4D4D4D"/>
<path d="M154.509 58.1409V60.3936H154.568C155.073 59.6415 155.741 59.0124 156.522 58.5525C157.33 58.067 158.324 57.8242 159.503 57.8242C160.872 57.8242 162 58.2193 162.886 59.0094C163.773 59.7995 164.215 60.9364 164.212 62.4201V72.8965H162.443V62.592C162.443 61.4702 162.143 60.6469 161.543 60.1222C160.943 59.5974 160.119 59.3366 159.073 59.3396C158.469 59.3362 157.87 59.4435 157.304 59.6562C156.77 59.8543 156.276 60.1487 155.848 60.5247C155.43 60.8931 155.095 61.3445 154.862 61.8501C154.62 62.378 154.498 62.9525 154.504 63.5329V72.8965H152.74V58.1409H154.509Z" fill="#4D4D4D"/>
<path d="M168.776 72.392C168.263 71.9819 168.007 71.3018 168.007 70.3519V59.5951H165.781V58.1386H168.007V53.6016H169.776V58.1386H172.517V59.5951H169.776V70.0669C169.776 70.6007 169.895 70.9671 170.133 71.1661C170.371 71.3652 170.727 71.4647 171.2 71.4647C171.417 71.4635 171.632 71.4393 171.843 71.3923C172.024 71.3562 172.201 71.3032 172.372 71.234H172.458V72.7448C171.933 72.9212 171.383 73.0084 170.83 73.0027C169.973 73.0027 169.288 72.7976 168.776 72.3875" fill="#4D4D4D"/>
<path d="M177.751 72.6792C176.922 72.3017 176.186 71.7456 175.598 71.0507C175.006 70.3571 174.554 69.5399 174.24 68.599C173.927 67.6581 173.77 66.6358 173.77 65.532C173.77 64.4283 173.927 63.406 174.24 62.4651C174.554 61.5242 175.006 60.7055 175.598 60.0089C176.187 59.3142 176.922 58.7581 177.751 58.3804C178.598 57.9914 179.554 57.7969 180.619 57.7969C181.683 57.7969 182.635 57.9914 183.473 58.3804C184.296 58.7609 185.027 59.3166 185.613 60.0089C186.204 60.7025 186.65 61.5212 186.952 62.4651C187.253 63.409 187.405 64.4313 187.408 65.532C187.408 66.6358 187.256 67.6581 186.952 68.599C186.647 69.5399 186.201 70.3571 185.613 71.0507C185.027 71.7431 184.296 72.299 183.473 72.6792C182.638 73.0682 181.686 73.2627 180.619 73.2627C179.551 73.2627 178.595 73.0682 177.751 72.6792ZM182.79 71.295C183.411 70.9779 183.949 70.5192 184.36 69.956C184.779 69.3861 185.092 68.7196 185.3 67.9566C185.719 66.3674 185.719 64.6967 185.3 63.1075C185.092 62.3445 184.779 61.678 184.36 61.1081C183.949 60.5445 183.411 60.0858 182.79 59.7691C182.163 59.4434 181.44 59.2821 180.623 59.2851C179.806 59.2881 179.078 59.4495 178.438 59.7691C177.821 60.0911 177.284 60.5489 176.869 61.1081C176.44 61.678 176.122 62.3445 175.914 63.1075C175.496 64.6968 175.496 66.3673 175.914 67.9566C176.122 68.7166 176.44 69.383 176.869 69.956C177.284 70.5148 177.821 70.9725 178.438 71.295C179.057 71.6177 179.785 71.779 180.623 71.779C181.462 71.779 182.184 71.6177 182.79 71.295Z" fill="#4D4D4D"/>
<path d="M189.671 60.5927C188.576 60.5927 187.816 59.8328 187.816 58.6974C187.816 57.562 188.594 56.793 189.671 56.793C190.748 56.793 191.53 57.562 191.53 58.6974C191.53 59.8328 190.752 60.5927 189.671 60.5927ZM189.671 57.0101C188.789 57.0101 188.083 57.6162 188.083 58.6928C188.083 59.7694 188.784 60.3666 189.671 60.3666C190.558 60.3666 191.268 59.7604 191.268 58.6928C191.268 57.6253 190.558 57.0101 189.671 57.0101ZM190.218 59.7106L189.59 58.8105H189.386V59.679H189.024V57.571H189.662C190.101 57.571 190.395 57.7927 190.395 58.1862C190.395 58.4893 190.232 58.6838 189.97 58.7652L190.576 59.6247L190.218 59.7106ZM189.667 57.9058H189.386V58.5255H189.648C189.884 58.5255 190.033 58.426 190.033 58.2134C190.033 58.0007 189.902 57.9012 189.667 57.9012" fill="#4D4D4D"/>
<defs>
<filter id="filter0_d" x="0.529297" y="0" width="231.843" height="132" filterUnits="userSpaceOnUse" color-interpolation-filters="sRGB">
<feFlood flood-opacity="0" result="BackgroundImageFix"/>
<feColorMatrix in="SourceAlpha" type="matrix" values="0 0 0 0 0 0 0 0 0 0 0 0 0 0 0 0 0 0 127 0"/>
<feOffset dy="3"/>
<feGaussianBlur stdDeviation="5"/>
<feColorMatrix type="matrix" values="0 0 0 0 0 0 0 0 0 0 0 0 0 0 0 0 0 0 0.1 0"/>
<feBlend mode="normal" in2="BackgroundImageFix" result="effect1_dropShadow"/>
<feBlend mode="normal" in="SourceGraphic" in2="effect1_dropShadow" result="shape"/>
</filter>
</defs>
</svg>
