<svg width="232" height="132" viewBox="0 0 232 132" fill="none" xmlns="http://www.w3.org/2000/svg">
<g filter="url(#filter0_d)">
<rect x="10" y="7" width="211.843" height="112" rx="5" fill="white"/>
<rect x="10.5" y="7.5" width="210.843" height="111" rx="4.5" stroke="#E0E0E0"/>
</g>
<path d="M107.518 61.5625C110.822 61.5625 112.89 64.0752 112.89 67.7354C112.89 71.3956 110.614 73.9083 107.518 73.9083C106.014 73.9083 104.936 73.2554 104.471 72.7805C104.382 72.6915 104.263 72.7311 104.263 72.8498V78.2016C104.263 78.2709 104.214 78.3203 104.145 78.3203H101.563C101.493 78.3203 101.444 78.2709 101.444 78.2016V61.9186C101.444 61.8494 101.493 61.7999 101.563 61.7999H103.304C103.442 61.7999 103.591 61.8197 103.64 61.9186L104.204 62.7199C104.283 62.8287 104.422 62.7991 104.52 62.6705C105.074 62.1066 106.321 61.5625 107.518 61.5625ZM107.043 64.1444C105.163 64.1444 104.253 65.6184 104.253 67.7354C104.253 70.0799 105.163 71.3264 107.043 71.3264C109.041 71.3264 110.07 69.8524 110.07 67.7354C110.07 65.6184 109.041 64.1444 107.043 64.1444Z" fill="black"/>
<path d="M184.818 75.3752C183.78 78.2045 183.582 78.3331 181.02 78.3331H177.567C177.498 78.3331 177.448 78.2836 177.448 78.2144V76.0083C177.448 75.9391 177.468 75.8896 177.567 75.8896H180.426C181.93 75.8896 181.92 75.3653 181.336 73.5649L177.419 61.9312C177.399 61.862 177.439 61.8125 177.537 61.8125H180.278C180.347 61.8125 180.396 61.862 180.416 61.9312L183.255 71.0126C183.275 71.1313 183.463 71.1313 183.493 71.0126L186.332 61.9312C186.352 61.862 186.401 61.8125 186.47 61.8125H189.191C189.28 61.8125 189.329 61.862 189.31 61.9312L184.818 75.3752Z" fill="black"/>
<path d="M92.4019 73.9287C87.4457 73.9287 84.9626 70.407 84.9626 65.4312C84.9626 60.4553 87.4556 56.9336 92.4019 56.9336C97.358 56.9336 99.8411 60.4553 99.8411 65.4312C99.8411 70.407 97.358 73.9287 92.4019 73.9287ZM96.9129 65.4312C96.9129 61.7413 95.3202 59.5155 92.4019 59.5155C89.4934 59.5155 87.8908 61.7413 87.8908 65.4312C87.8908 69.121 89.4835 71.3468 92.4019 71.3468C95.3202 71.3468 96.9129 69.121 96.9129 65.4312Z" fill="black"/>
<path d="M113.273 64.2843C113.204 64.2843 113.154 64.2349 113.154 64.1656V61.9398C113.154 61.8705 113.204 61.821 113.273 61.821H115.202C115.271 61.821 115.321 61.7716 115.321 61.7023V58.5367C115.321 58.4674 115.37 58.418 115.439 58.418H118.021C118.091 58.418 118.14 58.4674 118.14 58.5367V61.7023C118.14 61.7716 118.19 61.821 118.259 61.821H120.653C120.722 61.821 120.772 61.8705 120.772 61.9398V64.1656C120.772 64.2349 120.722 64.2843 120.653 64.2843H118.249C118.18 64.2843 118.13 64.3338 118.13 64.403V70.3683C118.13 70.8333 118.506 71.1202 118.971 71.1202H120.633C120.702 71.1202 120.752 71.1696 120.752 71.2389V73.5834C120.752 73.6527 120.702 73.7021 120.633 73.7021H118.803C116.34 73.7021 115.301 72.7426 115.301 70.3881V64.403C115.301 64.3338 115.252 64.2843 115.182 64.2843H113.273Z" fill="black"/>
<path d="M122.614 59.9913C122.554 59.9913 122.515 59.9517 122.515 59.8923V57.2708C122.515 57.2114 122.554 57.1719 122.614 57.1719H125.196C125.255 57.1719 125.295 57.2114 125.295 57.2708V59.8923C125.295 59.9517 125.255 59.9913 125.196 59.9913H122.614Z" fill="black"/>
<path d="M122.614 73.6934C122.545 73.6934 122.495 73.6439 122.495 73.5746V61.9312C122.495 61.862 122.545 61.8125 122.614 61.8125H125.196C125.265 61.8125 125.315 61.862 125.315 61.9312V73.5746C125.315 73.6439 125.265 73.6934 125.196 73.6934H122.614Z" fill="black"/>
<path d="M141.291 73.6929C141.222 73.6929 141.172 73.6434 141.172 73.5742V67.0746C141.172 65.6698 140.658 64.1661 139.035 64.1661C137.443 64.1661 136.918 65.4324 136.918 67.0746V73.5742C136.918 73.6434 136.869 73.6929 136.8 73.6929H134.218C134.148 73.6929 134.099 73.6434 134.099 73.5742V67.0746C134.099 65.6698 133.585 64.1661 131.962 64.1661C130.369 64.1661 129.845 65.4324 129.845 67.0746V73.5742C129.845 73.6434 129.796 73.6929 129.726 73.6929H127.154C127.085 73.6929 127.036 73.6434 127.036 73.5742V61.9304C127.036 61.8611 127.085 61.8116 127.154 61.8116H129.38C129.519 61.8116 129.568 61.8611 129.618 61.9501L129.855 62.6525C129.904 62.7416 129.994 62.7712 130.063 62.702C130.557 62.2074 131.824 61.5742 132.902 61.5742C134.287 61.5742 135.345 62.1381 135.959 62.9592C136.008 63.0285 136.097 63.0285 136.147 62.9592C136.8 62.2568 137.769 61.5742 139.273 61.5742C142.231 61.5742 143.992 63.2659 143.992 66.9262V73.5742C143.992 73.6434 143.942 73.6929 143.873 73.6929H141.291Z" fill="black"/>
<path d="M145.842 59.9913C145.782 59.9913 145.743 59.9517 145.743 59.8923V57.2708C145.743 57.2114 145.782 57.1719 145.842 57.1719H148.424C148.483 57.1719 148.522 57.2114 148.522 57.2708V59.8923C148.522 59.9517 148.483 59.9913 148.424 59.9913H145.842Z" fill="black"/>
<path d="M145.831 73.6934C145.762 73.6934 145.713 73.6439 145.713 73.5746V61.9312C145.713 61.862 145.762 61.8125 145.831 61.8125H148.413C148.483 61.8125 148.532 61.862 148.532 61.9312V73.5746C148.532 73.6439 148.483 73.6934 148.413 73.6934H145.831Z" fill="black"/>
<path d="M150.409 73.6934C150.34 73.6934 150.291 73.6439 150.291 73.5746V71.3192C150.291 71.2301 150.34 71.151 150.38 71.1114L156.038 64.5824C156.088 64.5329 156.088 64.3944 155.949 64.3944H150.647C150.578 64.3944 150.528 64.345 150.528 64.2757V61.9312C150.528 61.862 150.578 61.8125 150.647 61.8125H159.471C159.54 61.8125 159.59 61.862 159.59 61.9312V64.2559C159.59 64.3252 159.57 64.345 159.54 64.3746L153.902 70.9235C153.852 70.9729 153.852 71.1114 153.991 71.1114H159.738C159.807 71.1114 159.857 71.1609 159.857 71.2301V73.5746C159.857 73.6439 159.807 73.6934 159.738 73.6934H150.409Z" fill="black"/>
<path d="M171.592 68.8334H163.421C163.351 68.8334 163.302 68.8829 163.302 68.9522C163.302 70.2481 164.43 71.3462 166.092 71.3462C167.12 71.3462 167.971 71.089 168.367 70.2877C168.387 70.2382 168.436 70.169 168.555 70.169H171.305C171.374 70.169 171.443 70.2184 171.424 70.2877C170.909 72.563 168.772 73.9282 166.092 73.9282C162.669 73.9282 160.364 71.4155 160.364 67.7551C160.364 64.0651 162.669 61.582 166.092 61.582C169.514 61.582 171.819 64.0948 171.819 67.7551C171.8 68.2201 171.77 68.4377 171.701 68.7147C171.681 68.784 171.661 68.8334 171.592 68.8334ZM168.723 66.4889C168.792 66.4889 168.812 66.4691 168.812 66.3998C168.812 65.46 168.011 64.1739 166.092 64.1739C164.192 64.1739 163.302 65.4897 163.302 66.3998C163.302 66.4691 163.322 66.4889 163.391 66.4889H168.723Z" fill="black"/>
<path d="M173.353 73.6927C173.283 73.6927 173.234 73.6433 173.234 73.574V57.2906C173.234 57.2213 173.283 57.1719 173.353 57.1719H175.935C176.004 57.1719 176.053 57.2213 176.053 57.2906V73.5839C176.053 73.6532 176.004 73.7026 175.935 73.7026H173.353V73.6927Z" fill="black"/>
<path d="M54.9485 48.0807C53.148 49.8812 51.951 52.0378 51.3377 54.3329C52.4753 54.0262 53.6427 53.8679 54.81 53.858L50.8728 57.7953C50.8629 58.6658 50.9321 59.5364 51.0904 60.397L57.4117 54.0756C58.2229 54.2141 59.0143 54.4318 59.7959 54.7187C60.0234 54.3625 60.2905 54.0361 60.5972 53.7195C62.9219 51.3947 66.7009 51.3947 69.0355 53.7195C71.3603 56.0443 71.3603 59.8233 69.0355 62.1579C68.7288 62.4646 68.3925 62.7317 68.0364 62.9592C68.3232 63.7309 68.5409 64.5322 68.6794 65.3433L62.358 71.6647C63.2187 71.823 64.0892 71.8923 64.9598 71.8824L68.897 67.9451C68.8871 69.1124 68.7288 70.2798 68.4222 71.4174C70.7074 70.8041 72.8738 69.6071 74.6743 67.8066C80.1251 62.3558 80.1251 53.5315 74.6743 48.0807C69.2235 42.6398 60.3894 42.6398 54.9485 48.0807Z" fill="#0037FF"/>
<path d="M59.4199 60.5151C59.0835 59.8029 58.8956 59.0412 58.8461 58.2695L55.265 61.8506L52.5347 64.581C52.8512 65.1745 53.2173 65.7483 53.6327 66.3023L57.5106 62.4244L59.4199 60.5151Z" fill="#0037FF"/>
<path d="M64.4849 63.8999C63.7133 63.8604 62.9516 63.6724 62.2393 63.3262L60.33 65.2354L56.4521 69.1133C57.0061 69.5288 57.5799 69.8948 58.1735 70.2114L60.9038 67.4811L64.4849 63.8999Z" fill="#0037FF"/>
<path d="M58.8552 58.2705C58.7859 57.0438 59.1025 55.7974 59.7851 54.729C59.0035 54.4421 58.2121 54.2244 57.4009 54.0859L51.0796 60.4073C51.2181 61.2185 51.4357 62.0099 51.7226 62.7914C51.9501 63.4047 52.2172 64.0082 52.5338 64.5918L58.8552 58.2705Z" fill="#080738"/>
<path d="M64.4848 63.8986L58.1733 70.2197C58.757 70.5362 59.3604 70.8033 59.9738 71.0308C60.7454 71.3177 61.5467 71.5353 62.3579 71.6738L68.6793 65.3528C68.5309 64.5416 68.3231 63.7502 68.0362 62.9688C66.958 63.6612 65.7115 63.9679 64.4848 63.8986Z" fill="#080738"/>
<path d="M68.4228 71.4178C68.7295 70.2801 68.8878 69.1127 68.8976 67.9453L64.9604 71.8828C66.1179 71.8828 67.2852 71.7245 68.4228 71.4178Z" fill="#080738"/>
<path d="M51.3376 54.3321C51.031 55.4697 50.8727 56.6369 50.8628 57.8042L54.8 53.8672C53.6327 53.8771 52.4654 54.0354 51.3376 54.3321Z" fill="#080738"/>
<path d="M62.2381 63.335C61.6446 63.0481 61.0807 62.6623 60.5861 62.1677C60.0914 61.6731 59.7056 61.1191 59.4187 60.5156L53.6316 66.3028C54.0273 66.8271 54.4626 67.3316 54.9374 67.8163C55.4123 68.2912 55.9168 68.7265 56.451 69.1222L62.2381 63.335Z" fill="#080738"/>
<path d="M51.3377 54.332C49.0526 54.9454 46.8861 56.1424 45.0856 57.9428C42.3949 60.6336 41.0396 64.1356 41 67.6573L50.8629 57.7944C50.8728 56.637 51.0311 55.4697 51.3377 54.332Z" fill="#0037FF"/>
<path d="M55.0879 81.7554C58.6096 81.7158 62.1215 80.3606 64.8123 77.6699C66.6127 75.8695 67.8097 73.713 68.423 71.418C67.2854 71.7246 66.1181 71.8829 64.9508 71.8928L55.0879 81.7554Z" fill="#0037FF"/>
<path d="M50.7244 63.5917C51.0311 63.285 51.3674 63.0179 51.7236 62.7904C51.4367 62.0088 51.219 61.2174 51.0805 60.4062L41.2177 70.2691C41.4749 71.7135 41.9596 73.1281 42.6719 74.4438L48.9833 68.1323C48.9042 66.5001 49.4779 64.8381 50.7244 63.5917Z" fill="#0037FF"/>
<path d="M59.964 71.0312C59.7365 71.3874 59.4694 71.7237 59.1627 72.0304C57.9162 73.2769 56.2543 73.8605 54.622 73.7715L48.3105 80.083C49.6263 80.7952 51.0409 81.28 52.4852 81.5372L62.3481 71.6743C61.5468 71.5358 60.7455 71.3181 59.964 71.0312Z" fill="#0037FF"/>
<path d="M50.7233 72.031C50.2286 71.5363 49.8428 70.9824 49.556 70.3789L43.7688 76.1661C44.1645 76.6904 44.5998 77.1949 45.0746 77.6796C45.5495 78.1545 46.054 78.5897 46.5882 78.9854L52.3753 73.1983C51.7818 72.9114 51.2179 72.5157 50.7233 72.031Z" fill="#0037FF"/>
<defs>
<filter id="filter0_d" x="0" y="0" width="231.843" height="132" filterUnits="userSpaceOnUse" color-interpolation-filters="sRGB">
<feFlood flood-opacity="0" result="BackgroundImageFix"/>
<feColorMatrix in="SourceAlpha" type="matrix" values="0 0 0 0 0 0 0 0 0 0 0 0 0 0 0 0 0 0 127 0"/>
<feOffset dy="3"/>
<feGaussianBlur stdDeviation="5"/>
<feColorMatrix type="matrix" values="0 0 0 0 0 0 0 0 0 0 0 0 0 0 0 0 0 0 0.1 0"/>
<feBlend mode="normal" in2="BackgroundImageFix" result="effect1_dropShadow"/>
<feBlend mode="normal" in="SourceGraphic" in2="effect1_dropShadow" result="shape"/>
</filter>
</defs>
</svg>
