<svg width="233" height="132" viewBox="0 0 233 132" fill="none" xmlns="http://www.w3.org/2000/svg">
<g filter="url(#filter0_d)">
<rect x="10.8428" y="7" width="211.843" height="112" rx="5" fill="white"/>
<rect x="11.3428" y="7.5" width="210.843" height="111" rx="4.5" stroke="#E0E0E0"/>
</g>
<path d="M149.804 55.3789C147.442 55.3789 145.535 56.2077 144.168 57.7824L144.416 56.4149C144.441 56.3174 144.442 56.2154 144.42 56.1175C144.397 56.0195 144.351 55.9282 144.287 55.8513C144.222 55.7744 144.14 55.714 144.047 55.6751C143.954 55.6362 143.854 55.6199 143.753 55.6275C143.53 55.6362 143.316 55.718 143.144 55.8603C142.972 56.0025 142.851 56.1974 142.8 56.4149L138.739 77.5076C138.715 77.6051 138.714 77.707 138.736 77.805C138.759 77.903 138.804 77.9942 138.869 78.0712C138.934 78.1481 139.016 78.2085 139.109 78.2474C139.201 78.2863 139.302 78.3026 139.402 78.2949C139.625 78.2862 139.84 78.2045 140.012 78.0622C140.184 77.92 140.305 77.7251 140.355 77.5076L141.847 69.6755C142.386 70.6701 143.712 72.0376 146.571 72.0376C148.647 72.1038 150.668 71.3609 152.207 69.9656C153.74 68.5567 154.776 66.4432 155.315 63.7082C155.854 60.9732 155.605 58.8598 154.611 57.4509C153.699 56.0419 152.041 55.3789 149.804 55.3789ZM146.861 70.5458C143.422 70.5458 142.054 68.1837 142.925 63.6668C143.795 59.1499 145.991 56.8293 149.389 56.8293C153.119 56.8293 154.528 59.067 153.616 63.6668C152.746 68.3495 150.591 70.5458 146.861 70.5458Z" fill="#CF9C2B"/>
<path d="M184.862 62.7538C182.832 62.0079 180.884 61.2619 181.257 59.3971C181.423 58.444 182.21 56.8278 185.36 56.8278C187.1 56.8278 188.219 57.3251 189.172 58.4854C189.226 58.554 189.295 58.6087 189.375 58.6447C189.454 58.6808 189.541 58.6972 189.628 58.6926C189.836 58.6844 190.035 58.6062 190.193 58.4709C190.351 58.3355 190.458 58.1508 190.498 57.9467C190.535 57.7764 190.506 57.5984 190.415 57.4494C189.421 56.0404 187.846 55.3359 185.608 55.3359C182.417 55.3359 180.097 56.8692 179.641 59.3557C179.061 62.3394 181.713 63.334 184.034 64.2042C186.064 64.9502 187.929 65.6961 187.597 67.5195C187.1 70.0888 184.407 70.4618 182.832 70.4618C180.677 70.4618 179.351 69.8816 178.356 68.514C178.304 68.4444 178.234 68.3889 178.155 68.3528C178.075 68.3166 177.988 68.3008 177.901 68.3068C177.692 68.3136 177.492 68.3912 177.334 68.5268C177.176 68.6625 177.069 68.848 177.03 69.0528C176.993 69.223 177.023 69.4011 177.113 69.5501C177.776 70.7518 179.682 71.9536 182.542 71.9536C186.188 71.9536 188.675 70.296 189.213 67.5195C189.794 64.6186 187.183 63.6241 184.862 62.7538Z" fill="#CF9C2B"/>
<path d="M179.972 51.1953H178.273L178.604 49.4962C178.629 49.3987 178.63 49.2968 178.607 49.1988C178.585 49.1008 178.539 49.0096 178.474 48.9327C178.41 48.8557 178.328 48.7953 178.235 48.7564C178.142 48.7175 178.041 48.7012 177.941 48.7089C177.718 48.7176 177.504 48.7993 177.332 48.9416C177.159 49.0838 177.039 49.2787 176.988 49.4962L176.657 51.1953H174.957C174.734 51.204 174.52 51.2858 174.348 51.428C174.176 51.5703 174.055 51.7651 174.004 51.9827C173.98 52.0802 173.979 52.1821 174.001 52.2801C174.024 52.3781 174.069 52.4693 174.134 52.5462C174.199 52.6232 174.281 52.6836 174.374 52.7225C174.467 52.7614 174.567 52.7777 174.667 52.77H176.366L176.035 54.4691C176.01 54.5666 176.009 54.6685 176.032 54.7665C176.054 54.8645 176.1 54.9558 176.165 55.0327C176.229 55.1096 176.312 55.17 176.404 55.2089C176.497 55.2478 176.598 55.2641 176.698 55.2565C176.921 55.2478 177.135 55.166 177.307 55.0237C177.48 54.8815 177.6 54.6866 177.651 54.4691L177.983 52.77H179.682C179.905 52.7613 180.119 52.6796 180.291 52.5373C180.463 52.3951 180.584 52.2002 180.635 51.9827C180.657 51.8854 180.656 51.7845 180.632 51.6876C180.608 51.5908 180.563 51.5008 180.498 51.4245C180.434 51.3483 180.353 51.288 180.262 51.2482C180.171 51.2084 180.071 51.1903 179.972 51.1953Z" fill="#CF9C2B"/>
<path d="M45.0031 67.5623C45.8319 67.9767 47.3237 68.5983 48.7326 68.5568C50.0173 68.5568 50.7217 67.8524 50.7217 67.0236C50.7217 66.1948 50.2245 65.6561 48.8569 64.8273C47.1579 63.8327 45.8319 62.4652 45.8319 60.6419C45.8319 57.451 48.5669 55.1719 52.5865 55.1719C54.327 55.1719 55.6945 55.5034 56.3989 55.9178L55.3215 59.1501C54.423 58.7431 53.4485 58.5313 52.4622 58.5285C51.1776 58.5285 50.3488 59.1086 50.3488 60.0617C50.3488 60.8076 50.9289 61.3049 52.0892 61.9265C53.8711 62.9625 55.3629 64.33 55.3629 66.2777C55.3629 69.9243 52.4207 71.9549 48.3182 71.9134C46.4535 71.872 44.6716 71.3747 43.8428 70.7946L45.0031 67.5623Z" fill="#1C1C1C"/>
<path d="M56.3577 71.8301L60.7917 48.707H65.35L63.6096 57.6579L63.6925 57.6164C64.8942 56.1661 66.5103 55.1715 68.4994 55.1715C70.8615 55.1715 72.229 56.7048 72.229 59.274C72.2103 60.304 72.0994 61.3303 71.8975 62.3405L70.1156 71.8301H65.5158L67.2148 62.5891C67.3453 61.906 67.4146 61.2126 67.422 60.5172C67.422 59.5226 67.0076 58.8182 66.0131 58.8182C64.5627 58.8182 62.988 60.7658 62.4078 63.7494L60.8746 71.7886H56.3577V71.8301Z" fill="#1C1C1C"/>
<path d="M88.6801 61.4715C88.6801 67.1072 85.0334 71.9556 79.6463 71.9556C75.5438 71.9556 73.3889 69.0963 73.3889 65.5739C73.3889 60.0625 77.0356 55.0898 82.5056 55.0898C86.7738 55.1313 88.6801 58.2392 88.6801 61.4715ZM78.0301 65.4911C78.0301 67.1486 78.6932 68.4747 80.2264 68.4747C82.6299 68.4747 83.9974 64.165 83.9974 61.3886C83.9974 60.0211 83.4587 58.6536 81.8426 58.6536C79.3976 58.6122 78.0301 62.8804 78.0301 65.4911Z" fill="#1C1C1C"/>
<path d="M87.6025 78.2529L90.7934 61.5942C91.1663 59.7294 91.5393 57.2845 91.7051 55.544H95.7247L95.4761 58.1132H95.5589C96.7607 56.4142 98.584 55.2539 100.366 55.2539C103.723 55.2539 105.049 57.906 105.049 60.9726C105.049 66.5255 101.526 71.9955 96.1805 71.9955C95.0617 71.9955 94.0257 71.8298 93.487 71.3739H93.4041L92.1609 78.2115H87.6025V78.2529ZM94.1085 67.8516C94.627 68.2952 95.2912 68.5313 95.9733 68.5146C98.5011 68.5146 100.283 64.3292 100.283 61.387C100.283 60.1852 99.8686 58.8592 98.4597 58.8592C96.885 58.8592 95.3932 60.7239 94.8545 63.5833L94.1085 67.8516Z" fill="#1C1C1C"/>
<path d="M105.173 71.8325L108.239 55.5469H112.839L109.731 71.8325H105.173ZM111.099 53.8479C109.814 53.8479 108.944 52.729 108.944 51.403C108.929 50.6947 109.196 50.0094 109.685 49.4969C110.174 48.9845 110.846 48.6864 111.554 48.668C111.865 48.6675 112.171 48.7303 112.456 48.8526C112.741 48.9748 112.998 49.1539 113.212 49.3789C113.425 49.6038 113.59 49.87 113.697 50.161C113.804 50.4521 113.851 50.7619 113.834 51.0714C113.846 51.4325 113.786 51.7925 113.656 52.1297C113.527 52.4669 113.33 52.7744 113.079 53.0337C112.827 53.293 112.526 53.4988 112.192 53.6387C111.859 53.7786 111.501 53.8498 111.14 53.8479H111.099Z" fill="#1C1C1C"/>
<path d="M113.71 71.831L116.113 58.9848H114L114.663 55.5453H116.776L116.901 54.7165C117.274 52.8103 117.978 50.8627 119.553 49.5366C120.808 48.497 122.399 47.9518 124.028 48.0034C124.873 47.979 125.714 48.1053 126.515 48.3763L125.603 51.9401C125.135 51.7831 124.646 51.6993 124.152 51.6915C122.619 51.6915 121.708 53.1418 121.459 54.6751L121.293 55.5039H124.484L123.862 58.9434H120.713L118.309 71.7896L113.71 71.831Z" fill="#1C1C1C"/>
<path d="M130.078 55.5469L130.824 62.8402C131.031 64.4563 131.155 65.8238 131.238 66.694H131.321C131.694 65.8238 132.025 64.5806 132.688 62.7987L135.465 55.5469H140.23L134.636 67.4814C132.647 71.5838 130.741 74.5675 128.669 76.5151C127.411 77.7085 125.871 78.5638 124.193 79.0015L122.95 75.1476C123.865 74.8467 124.73 74.4139 125.519 73.863C126.556 73.1645 127.409 72.2263 128.006 71.128C128.071 71.024 128.112 70.9069 128.126 70.7851C128.141 70.6633 128.128 70.5398 128.089 70.4235L125.354 55.6298L130.078 55.5469Z" fill="#1C1C1C"/>
<path d="M176.242 57.0781C176.019 57.0868 175.805 57.1686 175.633 57.3108C175.46 57.4531 175.34 57.6479 175.289 57.8655L173.756 65.8634C172.927 69.9245 170.399 70.5047 168.078 70.5047C163.852 70.5047 163.769 68.1012 164.183 65.7391L166.007 56.3322C166.031 56.2347 166.032 56.1327 166.01 56.0347C165.987 55.9367 165.942 55.8455 165.877 55.7686C165.812 55.6917 165.73 55.6313 165.637 55.5924C165.544 55.5535 165.444 55.5372 165.343 55.5448C165.12 55.5535 164.906 55.6353 164.734 55.7775C164.562 55.9198 164.441 56.1146 164.39 56.3322L162.567 65.7391C162.194 67.6453 162.318 69.0543 162.981 70.0488C163.769 71.3335 165.385 71.9551 167.788 71.9551C170.192 71.9551 172.057 71.292 173.341 70.0488C174.377 69.0543 175.04 67.6039 175.413 65.7391L176.947 57.8655C176.96 57.766 176.951 57.6648 176.922 57.5689C176.892 57.4731 176.842 57.3847 176.775 57.3099C176.708 57.2351 176.626 57.1757 176.534 57.1357C176.442 57.0957 176.342 57.076 176.242 57.0781Z" fill="#CF9C2B"/>
<path d="M161.697 48.7508C161.474 48.7595 161.26 48.8413 161.088 48.9835C160.916 49.1258 160.795 49.3206 160.744 49.5382L156.6 71.0038C156.576 71.1013 156.575 71.2033 156.597 71.3012C156.62 71.3992 156.665 71.4905 156.73 71.5674C156.795 71.6443 156.877 71.7047 156.97 71.7436C157.062 71.7825 157.163 71.7988 157.263 71.7912C157.487 71.7825 157.701 71.7007 157.873 71.5584C158.045 71.4162 158.166 71.2213 158.216 71.0038L162.36 49.5382C162.382 49.4409 162.381 49.34 162.358 49.2431C162.334 49.1463 162.288 49.0563 162.224 48.9801C162.16 48.9038 162.079 48.8435 161.988 48.8037C161.896 48.7639 161.797 48.7458 161.697 48.7508Z" fill="#CF9C2B"/>
<defs>
<filter id="filter0_d" x="0.842773" y="0" width="231.843" height="132" filterUnits="userSpaceOnUse" color-interpolation-filters="sRGB">
<feFlood flood-opacity="0" result="BackgroundImageFix"/>
<feColorMatrix in="SourceAlpha" type="matrix" values="0 0 0 0 0 0 0 0 0 0 0 0 0 0 0 0 0 0 127 0"/>
<feOffset dy="3"/>
<feGaussianBlur stdDeviation="5"/>
<feColorMatrix type="matrix" values="0 0 0 0 0 0 0 0 0 0 0 0 0 0 0 0 0 0 0.1 0"/>
<feBlend mode="normal" in2="BackgroundImageFix" result="effect1_dropShadow"/>
<feBlend mode="normal" in="SourceGraphic" in2="effect1_dropShadow" result="shape"/>
</filter>
</defs>
</svg>
