<svg width="233" height="132" viewBox="0 0 233 132" fill="none" xmlns="http://www.w3.org/2000/svg">
<g filter="url(#filter0_d)">
<rect x="10.6855" y="7" width="211.843" height="112" rx="5" fill="white"/>
<rect x="11.1855" y="7.5" width="210.843" height="111" rx="4.5" stroke="#E0E0E0"/>
</g>
<path d="M126.093 60.539H123.625C123.574 60.3383 123.536 60.1055 123.511 59.8413C123.461 59.327 123.461 58.8091 123.511 58.2949C123.536 58.0312 123.574 57.7987 123.625 57.5968H129.775V76.9475C129.467 77.0007 129.157 77.0382 128.845 77.06C128.535 77.0836 128.225 77.0961 127.914 77.0974C127.617 77.0955 127.319 77.083 127.023 77.06C126.711 77.0381 126.401 77.0003 126.093 76.9469V60.5382V60.5386L126.093 60.539ZM147.502 65.4053C147.502 64.7009 147.407 64.0285 147.218 63.3867C147.027 62.7459 146.748 62.1865 146.382 61.7084C146.015 61.2311 145.547 60.8473 144.977 60.5582C144.408 60.269 143.731 60.1242 142.946 60.1242C141.403 60.1242 140.22 60.5901 139.397 61.5201C138.575 62.4504 138.075 63.7453 137.898 65.4053H147.502H147.502ZM137.86 68.1964C137.911 70.3086 138.461 71.8555 139.511 72.8356C140.561 73.8162 142.111 74.3073 144.161 74.3073C145.958 74.3073 147.666 73.9925 149.286 73.3639C149.488 73.7411 149.652 74.2001 149.779 74.7408C149.903 75.2671 149.979 75.8036 150.006 76.3437C149.172 76.6966 148.254 76.9595 147.255 77.136C146.254 77.3115 145.147 77.4 143.933 77.4C142.161 77.4 140.643 77.1541 139.378 76.6642C138.112 76.1733 137.069 75.4817 136.246 74.5895C135.424 73.697 134.822 72.6407 134.443 71.4208C134.063 70.2016 133.873 68.8623 133.873 67.4039C133.873 65.9706 134.057 64.6313 134.424 63.3863C134.79 62.1422 135.354 61.0607 136.113 60.1429C136.872 59.2247 137.827 58.4957 138.979 57.9551C140.13 57.4144 141.49 57.1437 143.06 57.1437C144.401 57.1437 145.577 57.3703 146.59 57.8229C147.602 58.2754 148.45 58.8979 149.133 59.69C149.817 60.4823 150.335 61.4253 150.69 62.5186C151.044 63.6129 151.222 64.8009 151.222 66.0837C151.222 66.4359 151.208 66.8065 151.183 67.1961C151.162 67.5296 151.137 67.8628 151.107 68.1956H137.859L137.86 68.1962L137.86 68.1964ZM155.361 57.5968C155.626 57.5491 155.891 57.5115 156.159 57.4839C156.411 57.4593 156.677 57.4465 156.956 57.4465C157.234 57.4465 157.512 57.4593 157.791 57.4839C158.069 57.5094 158.322 57.5472 158.55 57.5968C158.625 57.9742 158.701 58.4713 158.777 59.0868C158.853 59.703 158.892 60.2244 158.892 60.6521C159.423 59.7974 160.125 59.0551 160.998 58.4263C161.871 57.7981 162.991 57.4833 164.357 57.4833C164.56 57.4833 164.768 57.49 164.983 57.5026C165.168 57.5124 165.352 57.5309 165.534 57.5586C165.584 57.7853 165.623 58.0245 165.648 58.2756C165.673 58.5268 165.686 58.7911 165.686 59.0675C165.686 59.3695 165.667 59.6841 165.629 60.0103C165.592 60.3256 165.548 60.64 165.496 60.9531C165.291 60.9029 165.081 60.8776 164.87 60.8778H164.357C163.674 60.8778 163.022 60.9722 162.402 61.1605C161.781 61.3494 161.225 61.6826 160.732 62.16C160.239 62.6381 159.846 63.292 159.555 64.1219C159.264 64.9518 159.119 66.0205 159.119 67.3279V76.9469C158.811 77 158.5 77.038 158.188 77.0598C157.847 77.085 157.537 77.0972 157.259 77.0972C156.948 77.096 156.638 77.0835 156.329 77.0598C156.004 77.0364 155.681 76.9988 155.36 76.9471V57.597L155.361 57.5968ZM128.719 47.2644C128.719 47.7159 128.637 48.1637 128.477 48.5862C128.052 48.7453 127.601 48.8269 127.147 48.827H127.141C126.687 48.8271 126.236 48.7455 125.811 48.5864C125.65 48.1638 125.568 47.7159 125.568 47.2642V47.2583C125.568 46.793 125.654 46.3474 125.81 45.9362C126.235 45.7768 126.686 45.6953 127.141 45.6956H127.146C127.614 45.6956 128.062 45.781 128.476 45.9362C128.637 46.3588 128.719 46.8067 128.718 47.2583V47.2642H128.719L128.719 47.2644ZM133.358 46.2177H129.68L132.28 43.6335C131.871 43.0628 131.369 42.5641 130.795 42.1579L128.194 44.7421V41.0872C127.848 41.0294 127.498 41.0002 127.147 41H127.141C126.784 41 126.434 41.0303 126.094 41.0872V44.7421L123.492 42.1577C123.206 42.3603 122.937 42.5864 122.688 42.8337L122.687 42.8349C122.439 43.0819 122.211 43.3491 122.007 43.6337L124.609 46.2177H120.93C120.93 46.2177 120.843 46.9044 120.843 47.2593V47.2636C120.843 47.6186 120.873 47.9664 120.93 48.305H124.609L122.007 50.8889C122.416 51.4595 122.919 51.9583 123.493 52.3649L126.094 49.7808V53.436C126.434 53.4927 126.783 53.5226 127.139 53.523H127.148C127.499 53.5226 127.848 53.4935 128.194 53.436V49.7808L130.795 52.3655C131.082 52.1627 131.351 51.9366 131.6 51.6895H131.6C131.849 51.4421 132.076 51.1747 132.28 50.8901L129.679 48.3052H133.358C133.415 47.9668 133.445 47.6201 133.445 47.266V47.257C133.445 46.9087 133.416 46.5615 133.358 46.2181V46.2177H133.358ZM66.6855 76.4196L76.9349 60.5767H67.9001C67.8245 60.1242 67.7866 59.6217 67.7866 59.0683C67.7866 58.5404 67.825 58.0495 67.9009 57.5966H82.5154L82.7055 58.0879L72.3803 73.9677H82.0598C82.1356 74.4708 82.1738 74.9859 82.1738 75.5138C82.1738 76.0174 82.1358 76.4949 82.06 76.9475H66.8756L66.6855 76.419V76.4196ZM96.2563 67.8566C95.8767 67.8068 95.3958 67.757 94.8139 67.7061C94.2317 67.6563 93.7383 67.6307 93.334 67.6307C91.7646 67.6307 90.5689 67.9199 89.747 68.4984C88.9239 69.0772 88.5134 69.9568 88.5134 71.1387C88.5134 71.893 88.652 72.4841 88.9306 72.9114C89.2086 73.3395 89.5569 73.6657 89.9745 73.8922C90.3923 74.1184 90.8536 74.257 91.3595 74.3073C91.8654 74.3575 92.3465 74.3825 92.802 74.3825C93.3841 74.3825 93.985 74.351 94.6052 74.288C95.2249 74.2257 95.7753 74.131 96.2565 74.0053V67.8566H96.2563ZM96.2563 64.1983C96.2563 62.714 95.8767 61.683 95.1178 61.1046C94.3582 60.5262 93.2576 60.2369 91.8151 60.2369C90.9287 60.2369 90.1004 60.3066 89.3288 60.4447C88.5652 60.5809 87.8108 60.7634 87.0696 60.9911C86.5885 60.1612 86.3489 59.1686 86.3489 58.0111C87.2082 57.7349 88.157 57.5212 89.1952 57.3703C90.2327 57.2192 91.2322 57.1437 92.1943 57.1437C94.7247 57.1437 96.6479 57.7162 97.9641 58.8603C99.2796 60.0054 99.9381 61.8345 99.9381 64.3488V76.457C99.0519 76.6581 97.9767 76.8654 96.7115 77.0793C95.4322 77.2939 94.137 77.4012 92.8396 77.4C91.5997 77.4 90.4794 77.2873 89.4803 77.0608C88.4804 76.8339 87.6325 76.4702 86.9368 75.9665C86.2402 75.464 85.7032 74.8226 85.323 74.0433C84.9437 73.2636 84.7538 72.3208 84.7538 71.2141C84.7538 70.1331 84.9752 69.1836 85.4181 68.3659C85.8533 67.5581 86.4705 66.861 87.2215 66.3292C87.9806 65.7894 88.8536 65.3864 89.8406 65.1228C90.8279 64.8585 91.865 64.7263 92.9532 64.7263C93.7631 64.7263 94.4273 64.7456 94.9463 64.7834C95.4647 64.8208 95.9015 64.8648 96.2559 64.9152V64.1985L96.2563 64.1983ZM107.796 73.7783C108.275 73.9542 108.771 74.0806 109.276 74.1556C109.783 74.2314 110.44 74.269 111.251 74.269C112.161 74.269 112.996 74.1247 113.755 73.8355C114.515 73.5469 115.166 73.1001 115.71 72.4963C116.254 71.893 116.685 71.1328 117.001 70.214C117.317 69.2968 117.476 68.2095 117.476 66.9515C117.476 64.94 117.102 63.3432 116.356 62.1611C115.609 60.9795 114.388 60.3884 112.693 60.3884C112.06 60.3884 111.452 60.5014 110.871 60.728C110.288 60.9543 109.77 61.2939 109.314 61.7464C108.859 62.1989 108.492 62.7714 108.214 63.4628C107.935 64.155 107.796 64.9778 107.796 65.9336V73.7789V73.7785L107.796 73.7783ZM104.038 57.5964C104.295 57.546 104.555 57.5085 104.816 57.4835C105.087 57.4585 105.36 57.446 105.632 57.4461C105.885 57.4461 106.15 57.4591 106.429 57.4835C106.707 57.5091 106.973 57.547 107.226 57.5966C107.251 57.6478 107.283 57.8042 107.321 58.0684C107.359 58.3326 107.397 58.6154 107.435 58.9168C107.473 59.2188 107.511 59.5086 107.549 59.7844C107.587 60.0614 107.606 60.2375 107.606 60.3129C107.858 59.9109 108.162 59.5208 108.517 59.1436C108.871 58.7663 109.295 58.4269 109.789 58.1255C110.282 57.8235 110.839 57.5848 111.459 57.4085C112.079 57.2326 112.768 57.1439 113.528 57.1439C114.666 57.1439 115.723 57.3328 116.698 57.7101C117.672 58.0879 118.506 58.6716 119.202 59.4639C119.898 60.2562 120.442 61.2622 120.835 62.4814C121.227 63.7021 121.423 65.1415 121.423 66.8008C121.423 70.12 120.518 72.717 118.708 74.59C116.898 76.4637 114.337 77.4 111.022 77.4C110.465 77.4 109.896 77.3622 109.314 77.2869C108.731 77.2111 108.225 77.1104 107.795 76.9852V85.8495C107.474 85.9013 107.151 85.9391 106.827 85.9626C106.485 85.9872 106.175 86 105.897 86C105.586 85.9987 105.276 85.9862 104.967 85.9626C104.655 85.9407 104.345 85.9029 104.037 85.8495V57.5966L104.038 57.5964Z" fill="#FF4A00"/>
<defs>
<filter id="filter0_d" x="0.685547" y="0" width="231.843" height="132" filterUnits="userSpaceOnUse" color-interpolation-filters="sRGB">
<feFlood flood-opacity="0" result="BackgroundImageFix"/>
<feColorMatrix in="SourceAlpha" type="matrix" values="0 0 0 0 0 0 0 0 0 0 0 0 0 0 0 0 0 0 127 0"/>
<feOffset dy="3"/>
<feGaussianBlur stdDeviation="5"/>
<feColorMatrix type="matrix" values="0 0 0 0 0 0 0 0 0 0 0 0 0 0 0 0 0 0 0.1 0"/>
<feBlend mode="normal" in2="BackgroundImageFix" result="effect1_dropShadow"/>
<feBlend mode="normal" in="SourceGraphic" in2="effect1_dropShadow" result="shape"/>
</filter>
</defs>
</svg>
