<svg width="233" height="132" viewBox="0 0 233 132" fill="none" xmlns="http://www.w3.org/2000/svg">
<g filter="url(#filter0_d)">
<rect x="10.5288" y="7" width="211.843" height="112" rx="5" fill="white"/>
<rect x="11.0288" y="7.5" width="210.843" height="111" rx="4.5" stroke="#E0E0E0"/>
</g>
<path fill-rule="evenodd" clip-rule="evenodd" d="M48.9122 64.1191L57.0446 55.8839C57.3151 55.6092 57.6375 55.3911 57.9931 55.2423C58.3487 55.0934 58.7303 55.0167 59.1158 55.0167C59.5013 55.0167 59.8829 55.0934 60.2385 55.2423C60.5941 55.3911 60.9165 55.6092 61.187 55.8839L61.819 56.5242L63.0873 55.2456L62.4532 54.6053C62.0175 54.1625 61.498 53.8108 60.925 53.5707C60.352 53.3307 59.737 53.207 59.1158 53.207C58.4945 53.207 57.8795 53.3307 57.3065 53.5707C56.7336 53.8108 56.2141 54.1625 55.7784 54.6053L47.646 62.8365L48.9122 64.1191Z" fill="black"/>
<path fill-rule="evenodd" clip-rule="evenodd" d="M59.7941 58.6206L58.5197 57.34L50.3502 65.5589C50.0777 65.8334 49.7536 66.0512 49.3965 66.1998C49.0395 66.3485 48.6565 66.425 48.2698 66.425C47.883 66.425 47.5001 66.3485 47.143 66.1998C46.7859 66.0512 46.4618 65.8334 46.1893 65.5589C45.6385 65.0016 45.3296 64.2497 45.3296 63.4661C45.3296 62.6825 45.6385 61.9306 46.1893 61.3733L53.2388 54.2806L51.9705 53L44.917 60.0927C44.0277 60.9902 43.5288 62.2026 43.5288 63.4661C43.5288 64.7296 44.0277 65.942 44.917 66.8395C45.3569 67.2809 45.8796 67.6311 46.4551 67.87C47.0306 68.1089 47.6476 68.2319 48.2708 68.2319C48.894 68.2319 49.511 68.1089 50.0865 67.87C50.662 67.6311 51.1847 67.2809 51.6246 66.8395L59.7941 58.6206Z" fill="black"/>
<path fill-rule="evenodd" clip-rule="evenodd" d="M67.8766 60.162C67.4367 59.7206 66.914 59.3704 66.3384 59.1315C65.7629 58.8925 65.1459 58.7695 64.5228 58.7695C63.8996 58.7695 63.2826 58.8925 62.7071 59.1315C62.1315 59.3704 61.6088 59.7206 61.1689 60.162L52.9995 68.3808L54.2719 69.6614L62.4433 61.4425C62.7182 61.1693 63.0441 60.9529 63.4026 60.8057C63.761 60.6585 64.145 60.5833 64.5325 60.5844C64.92 60.5856 65.3035 60.663 65.6611 60.8124C66.0187 60.9617 66.3434 61.1801 66.6166 61.4549C66.8898 61.7297 67.1062 62.0557 67.2534 62.4142C67.4007 62.7726 67.4759 63.1566 67.4747 63.5441C67.4736 63.9316 67.3961 64.3151 67.2467 64.6727C67.0974 65.0303 66.8791 65.355 66.6042 65.6282L59.5548 72.7209L60.823 74.0015L67.8725 66.9088C68.7617 66.0112 69.2606 64.7988 69.2606 63.5354C69.2606 62.2719 68.7617 61.0595 67.8725 60.162" fill="black"/>
<path fill-rule="evenodd" clip-rule="evenodd" d="M63.8808 62.8828L55.7485 71.1181C55.478 71.3928 55.1555 71.6109 54.8 71.7597C54.4444 71.9086 54.0628 71.9853 53.6773 71.9853C53.2918 71.9853 52.9102 71.9086 52.5546 71.7597C52.199 71.6109 51.8766 71.3928 51.6061 71.1181L50.974 70.4778L49.7058 71.7563L50.3399 72.3966C50.7756 72.8395 51.2951 73.1912 51.8681 73.4313C52.441 73.6713 53.056 73.795 53.6773 73.795C54.2985 73.795 54.9135 73.6713 55.4865 73.4313C56.0595 73.1912 56.5789 72.8395 57.0146 72.3966L65.147 64.1613L63.8808 62.8828Z" fill="black"/>
<path fill-rule="evenodd" clip-rule="evenodd" d="M76.7752 65.6433C76.8567 66.1326 77.119 66.5735 77.5102 66.8786C77.9541 67.1927 78.4905 67.3493 79.0337 67.3233C79.6541 67.3233 80.1345 67.1771 80.4749 66.8847C80.6412 66.7438 80.7733 66.5671 80.8614 66.3677C80.9495 66.1684 80.9912 65.9517 80.9834 65.7339C80.9902 65.5284 80.9434 65.3248 80.8475 65.143C80.7544 64.9786 80.6248 64.8377 80.4687 64.7312C80.2827 64.6087 80.0803 64.513 79.8675 64.4471C79.6287 64.3689 79.3631 64.2865 79.0667 64.2L78.2946 63.9797C77.8689 63.8673 77.4551 63.7135 77.0593 63.5206C76.7197 63.3554 76.4067 63.1403 76.1308 62.8824C75.8805 62.6513 75.6807 62.3709 75.544 62.0589C75.4022 61.7092 75.3322 61.3346 75.3381 60.9574C75.3342 60.5392 75.4221 60.1253 75.5955 59.7447C75.7639 59.3782 76.0131 59.0544 76.3243 58.7977C76.6637 58.5218 77.0521 58.3123 77.469 58.18C77.9585 58.0231 78.4703 57.9466 78.9843 57.9536C80.0425 57.9536 80.8818 58.2089 81.5022 58.7194C81.8104 58.9739 82.0651 59.2868 82.2517 59.6401C82.4382 59.9935 82.553 60.3803 82.5893 60.7783L80.8722 60.9224C80.7933 60.5175 80.5747 60.1531 80.2546 59.893C79.8707 59.625 79.4086 59.4925 78.9411 59.5162C78.498 59.4884 78.0596 59.6207 77.7058 59.8889C77.5634 60.0032 77.4494 60.149 77.3726 60.3147C77.2958 60.4804 77.2584 60.6616 77.2631 60.8441C77.2569 61.0393 77.3008 61.2329 77.3908 61.4062C77.4835 61.5639 77.6109 61.6984 77.7634 61.7994C77.9483 61.9226 78.1474 62.0228 78.3564 62.098C78.5911 62.1865 78.8546 62.2791 79.1511 62.3759L79.8799 62.6086C80.3369 62.7547 80.7508 62.9091 81.1152 63.0677C81.4545 63.2119 81.7703 63.4062 82.0519 63.6441C82.3072 63.8645 82.5104 64.1388 82.6469 64.4471C82.7948 64.813 82.865 65.2056 82.8528 65.6C82.8587 66.0606 82.7609 66.5165 82.5667 66.9342C82.38 67.3328 82.1063 67.6846 81.7658 67.9636C81.4021 68.256 80.9875 68.4787 80.5428 68.6203C80.0362 68.7804 79.5073 68.8589 78.9761 68.853C78.0362 68.8874 77.1097 68.622 76.3305 68.0953C75.6236 67.5889 75.1899 66.825 75.0293 65.8039L76.7752 65.6433Z" fill="black"/>
<path fill-rule="evenodd" clip-rule="evenodd" d="M90.2359 59.7158C89.7603 59.7079 89.289 59.8064 88.8564 60.004C88.4578 60.1926 88.1061 60.4676 87.827 60.809C87.5341 61.1691 87.3133 61.5822 87.1764 62.0258C87.031 62.5223 86.9615 63.0381 86.9705 63.5555C86.9661 64.0769 87.0433 64.5958 87.1991 65.0934C87.3374 65.542 87.558 65.9609 87.8497 66.3287C88.1277 66.6759 88.4793 66.9572 88.8791 67.1522C89.3101 67.3555 89.782 67.4569 90.2585 67.4486C90.7334 67.4565 91.2042 67.3602 91.6379 67.1666C92.0359 66.9833 92.3876 66.7132 92.6673 66.376C92.963 66.0108 93.184 65.5911 93.3179 65.1407C93.4751 64.6314 93.5522 64.1008 93.5465 63.5678C93.5516 63.0423 93.4745 62.5192 93.3179 62.0175C93.1819 61.5737 92.9609 61.1604 92.6673 60.8008C92.3872 60.462 92.0357 60.1892 91.6379 60.002C91.2023 59.8047 90.7284 59.7063 90.2503 59.7137L90.2359 59.7158ZM90.2647 58.1449C90.9897 58.1362 91.7092 58.272 92.3812 58.5443C92.9986 58.7956 93.5548 59.1769 94.0118 59.6623C94.4706 60.161 94.8254 60.7461 95.0556 61.3834C95.3042 62.0879 95.4248 62.8312 95.4118 63.5781C95.4226 64.3388 95.2891 65.0947 95.0185 65.8057C94.7688 66.4515 94.3866 67.0378 93.8965 67.5269L95.2697 69.1739V69.6763H93.5238L92.5665 68.4863C92.2248 68.6454 91.8673 68.7682 91.5 68.8527C91.0945 68.9428 90.6801 68.987 90.2647 68.9845C89.5328 68.9954 88.8062 68.8596 88.1276 68.5851C87.5145 68.3326 86.9632 67.9505 86.5114 67.4651C86.0574 66.9685 85.7074 66.3861 85.482 65.7522C85.2329 65.0548 85.1095 64.3187 85.1176 63.5781C85.1091 62.8335 85.2325 62.0933 85.482 61.3917C85.7059 60.757 86.0561 60.1743 86.5114 59.6787C86.97 59.1948 87.5257 58.8131 88.142 58.5587C88.8096 58.2799 89.5269 58.1398 90.2503 58.147" fill="black"/>
<path fill-rule="evenodd" clip-rule="evenodd" d="M102.412 67.3515C102.73 67.3693 103.048 67.3165 103.344 67.197C103.639 67.0774 103.904 66.8939 104.121 66.6598C104.532 66.1972 104.738 65.4897 104.738 64.5371V58.1484H106.529V64.5803C106.544 65.2409 106.448 65.8993 106.245 66.528C106.079 67.0271 105.801 67.4814 105.432 67.856C105.067 68.209 104.622 68.4688 104.135 68.6136C103.006 68.9348 101.809 68.9348 100.68 68.6136C100.196 68.4678 99.7542 68.208 99.3914 67.856C99.0222 67.4814 98.744 67.0271 98.5781 66.528C98.375 65.8993 98.279 65.2409 98.294 64.5803V58.1484H100.089V64.5309C100.089 65.4835 100.295 66.191 100.707 66.6536C100.922 66.8883 101.187 67.0726 101.481 67.1932C101.776 67.3139 102.094 67.3679 102.412 67.3515Z" fill="black"/>
<path fill-rule="evenodd" clip-rule="evenodd" d="M111.676 64.1573H115.113L114.546 62.5227C114.324 61.8844 114.145 61.3615 114.011 60.9621C113.877 60.5627 113.754 60.2065 113.649 59.8998H113.2C113.14 60.0624 113.083 60.2251 113.025 60.3877L112.829 60.9333C112.757 61.1392 112.677 61.3615 112.591 61.6209C112.504 61.8803 112.397 62.1789 112.271 62.5227L111.676 64.1573ZM108.382 68.1432L112.088 58.3516H114.828L118.47 68.1432V68.6455H116.673L115.629 65.7056H111.123L110.079 68.6455H108.382V68.1432Z" fill="black"/>
<path fill-rule="evenodd" clip-rule="evenodd" d="M122.517 63.0539H124.081C124.649 63.0828 125.213 62.9515 125.71 62.6751C126.107 62.4239 126.305 62.0121 126.305 61.4398C126.305 60.8633 126.099 60.4598 125.702 60.2334C125.2 59.9825 124.642 59.8648 124.081 59.8916H122.517V63.0539ZM128.559 68.6455H126.822L123.678 64.6021H122.517V68.6455H120.736V58.3516H124.081C124.583 58.3496 125.084 58.3854 125.58 58.4587C126.04 58.5255 126.479 58.6943 126.865 58.9528C127.679 59.4881 128.086 60.2958 128.086 61.376C128.096 61.7971 128.027 62.2163 127.88 62.6112C127.753 62.9398 127.564 63.2409 127.324 63.4986C127.096 63.7417 126.827 63.943 126.529 64.0936C126.23 64.245 125.915 64.3604 125.588 64.4374L128.559 68.1432V68.6455Z" fill="black"/>
<path fill-rule="evenodd" clip-rule="evenodd" d="M130.824 58.3516H137.517V59.9286H132.594V62.6235H137.171V64.1718H132.594V67.0685H137.618V68.6455H130.824V58.3516Z" fill="black"/>
<path fill-rule="evenodd" clip-rule="evenodd" d="M141.628 65.6433C141.71 66.1326 141.972 66.5735 142.363 66.8786C142.807 67.1925 143.344 67.349 143.887 67.3233C144.506 67.3233 144.986 67.1771 145.328 66.8847C145.494 66.7438 145.626 66.5671 145.714 66.3677C145.802 66.1684 145.844 65.9517 145.836 65.7339C145.843 65.5284 145.796 65.3248 145.701 65.143C145.607 64.9786 145.478 64.8377 145.322 64.7312C145.136 64.6087 144.933 64.513 144.721 64.4471C144.482 64.3689 144.216 64.2865 143.92 64.2L143.148 63.9797C142.722 63.8673 142.308 63.7135 141.912 63.5206C141.573 63.3554 141.26 63.1403 140.984 62.8824C140.734 62.6513 140.534 62.3709 140.397 62.0589C140.255 61.7092 140.185 61.3346 140.191 60.9574C140.187 60.5392 140.275 60.1253 140.449 59.7447C140.617 59.3782 140.866 59.0544 141.177 58.7977C141.517 58.5218 141.905 58.3123 142.322 58.18C142.812 58.0231 143.323 57.9466 143.837 57.9536C144.896 57.9536 145.735 58.2089 146.355 58.7194C146.663 58.9739 146.918 59.2868 147.105 59.6401C147.291 59.9935 147.406 60.3803 147.442 60.7783L145.725 60.9224C145.643 60.5163 145.421 60.1521 145.097 59.893C144.711 59.6287 144.247 59.5005 143.78 59.5286C143.337 59.5008 142.898 59.633 142.544 59.9012C142.402 60.0159 142.289 60.1617 142.212 60.3273C142.135 60.493 142.097 60.674 142.102 60.8565C142.095 61.0517 142.139 61.2452 142.229 61.4186C142.322 61.5762 142.45 61.7107 142.602 61.8118C142.787 61.9349 142.986 62.0352 143.195 62.1103C143.43 62.1989 143.693 62.2915 143.99 62.3883L144.719 62.6209C145.176 62.7671 145.589 62.9215 145.954 63.08C146.293 63.2243 146.609 63.4186 146.891 63.6565C147.15 63.8718 147.358 64.1418 147.5 64.4471C147.648 64.813 147.718 65.2056 147.706 65.6C147.712 66.0606 147.614 66.5165 147.42 66.9342C147.233 67.3328 146.959 67.6846 146.619 67.9636C146.255 68.256 145.841 68.4787 145.396 68.6203C144.889 68.7804 144.36 68.8589 143.829 68.853C142.889 68.8874 141.963 68.622 141.184 68.0953C140.477 67.5889 140.043 66.825 139.882 65.8039L141.628 65.6433Z" fill="black"/>
<path fill-rule="evenodd" clip-rule="evenodd" d="M152.206 63.1424H153.958C154.254 63.1444 154.549 63.1182 154.84 63.0642C155.088 63.0201 155.326 62.9307 155.542 62.8007C155.739 62.6796 155.9 62.5083 156.009 62.3045C156.127 62.066 156.184 61.8023 156.176 61.5365C156.185 61.264 156.128 60.9934 156.009 60.7479C155.903 60.5416 155.744 60.3675 155.548 60.2435C155.336 60.1129 155.101 60.0235 154.856 59.9799C154.57 59.9264 154.279 59.9002 153.987 59.9017H152.206V63.1424ZM150.382 58.3534H154.206C154.81 58.3379 155.414 58.42 155.993 58.5964C156.428 58.7317 156.827 58.9624 157.162 59.2717C157.452 59.5524 157.668 59.8993 157.794 60.2826C157.931 60.6864 158.001 61.11 158 61.5365C158.011 62.0164 157.919 62.493 157.73 62.9345C157.555 63.3201 157.287 63.6562 156.95 63.9125C156.579 64.1836 156.16 64.3808 155.715 64.4931C155.176 64.6287 154.623 64.6937 154.068 64.6866H152.215V68.6479H150.382V58.3534Z" fill="black"/>
<path fill-rule="evenodd" clip-rule="evenodd" d="M161.706 64.1573H165.142L164.576 62.5227C164.353 61.8844 164.174 61.3615 164.04 60.9621C163.907 60.5627 163.783 60.2065 163.678 59.8998H163.227L163.054 60.3877L162.859 60.9333C162.787 61.1392 162.706 61.3615 162.62 61.6209C162.533 61.8803 162.426 62.1789 162.301 62.5227L161.706 64.1573ZM158.412 68.1432L162.118 58.3516H164.858L168.5 68.1432V68.6455H166.703L165.659 65.7056H161.152L160.108 68.6455H158.412V68.1432Z" fill="black"/>
<path fill-rule="evenodd" clip-rule="evenodd" d="M179.412 65.9232C179.248 66.3272 179.032 66.7084 178.77 67.0576C178.502 67.4174 178.177 67.7317 177.809 67.9881C177.409 68.2657 176.968 68.4784 176.501 68.6181C175.967 68.7783 175.412 68.8567 174.854 68.8508C174.134 68.8572 173.419 68.7171 172.754 68.439C172.144 68.1857 171.593 67.8069 171.138 67.3273C170.685 66.837 170.335 66.2609 170.109 65.6329C169.859 64.9539 169.733 64.2358 169.736 63.5124C169.729 62.786 169.853 62.0643 170.101 61.3815C170.328 60.7502 170.682 60.1716 171.14 59.681C171.598 59.1985 172.15 58.8157 172.763 58.5569C173.433 58.2741 174.155 58.1339 174.883 58.1452C176.02 58.1452 176.971 58.408 177.737 58.9337C178.485 59.4417 179.052 60.1751 179.355 61.0274L177.52 61.3857C177.289 60.8868 176.927 60.4599 176.473 60.1504C175.989 59.8392 175.423 59.682 174.848 59.6995C174.376 59.6926 173.909 59.7947 173.483 59.9981C173.09 60.1891 172.745 60.4655 172.472 60.8072C172.192 61.1695 171.982 61.5816 171.855 62.0218C171.711 62.509 171.642 63.0149 171.649 63.5227C171.644 64.0344 171.719 64.5437 171.873 65.0317C172.009 65.4704 172.229 65.8782 172.522 66.232C172.803 66.5685 173.154 66.8391 173.551 67.0246C173.986 67.2222 174.459 67.32 174.937 67.3108C175.532 67.3349 176.118 67.1635 176.606 66.8229C177.032 66.5098 177.38 66.1026 177.623 65.6329L179.412 65.9232Z" fill="black"/>
<path fill-rule="evenodd" clip-rule="evenodd" d="M181.767 58.2305H188.499V59.822H183.548V62.5438H188.152V64.1064H183.548V67.032H188.6V68.6235H181.767V58.2305Z" fill="black"/>
<defs>
<filter id="filter0_d" x="0.528809" y="0" width="231.843" height="132" filterUnits="userSpaceOnUse" color-interpolation-filters="sRGB">
<feFlood flood-opacity="0" result="BackgroundImageFix"/>
<feColorMatrix in="SourceAlpha" type="matrix" values="0 0 0 0 0 0 0 0 0 0 0 0 0 0 0 0 0 0 127 0"/>
<feOffset dy="3"/>
<feGaussianBlur stdDeviation="5"/>
<feColorMatrix type="matrix" values="0 0 0 0 0 0 0 0 0 0 0 0 0 0 0 0 0 0 0.1 0"/>
<feBlend mode="normal" in2="BackgroundImageFix" result="effect1_dropShadow"/>
<feBlend mode="normal" in="SourceGraphic" in2="effect1_dropShadow" result="shape"/>
</filter>
</defs>
</svg>
