<svg width="291" height="50" viewBox="0 0 291 50" fill="none" xmlns="http://www.w3.org/2000/svg">
<path d="M120.596 20.5381H112.259L110.387 25.7316H107.68L115.279 5.83203H117.576L125.188 25.7316H122.496L120.596 20.5381ZM113.052 18.3786H119.817L116.428 9.07119L113.052 18.3786Z" fill="white"/>
<path d="M150.158 25.7316H147.521L137.503 10.3969V25.7316H134.865V5.83203H137.503L147.548 21.2351V5.83203H150.158V25.7316Z" fill="white"/>
<path d="M173.051 20.5381H164.714L162.842 25.7316H160.136L167.735 5.83203H170.031L177.643 25.7316H174.951L173.051 20.5381ZM165.507 18.3786H172.272L168.883 9.07119L165.507 18.3786Z" fill="white"/>
<path d="M189.958 23.5859H199.388V25.7316H187.32V5.83203H189.958V23.5859Z" fill="white"/>
<path d="M212.167 15.8228L217.361 5.83203H220.34L213.479 18.3103V25.7316H210.855V18.3103L203.994 5.83203H207.001L212.167 15.8228Z" fill="white"/>
<path d="M231.875 23.5859H243.26V25.7316H228.773V23.7636L239.679 7.99147H228.951V5.83203H242.823V7.75912L231.875 23.5859Z" fill="white"/>
<path d="M264.909 16.5335H256.285V23.5859H266.303V25.7316H253.661V5.83203H266.167V7.99147H256.285V14.3878H264.909V16.5335Z" fill="white"/>
<path d="M283.866 17.6816H279.192V25.7316H276.554V5.83203H283.141C285.383 5.83203 287.105 6.34228 288.308 7.36277C289.52 8.38326 290.125 9.86845 290.125 11.8183C290.125 13.0575 289.788 14.1372 289.114 15.0575C288.449 15.9777 287.52 16.6657 286.326 17.1212L291 25.5676V25.7316H288.185L283.866 17.6816ZM279.192 15.5358H283.223C284.526 15.5358 285.561 15.1987 286.326 14.5244C287.1 13.8502 287.488 12.9481 287.488 11.8183C287.488 10.5883 287.119 9.64521 286.381 8.98918C285.652 8.33315 284.595 8.00058 283.21 7.99147H279.192V15.5358Z" fill="white"/>
<path fill-rule="evenodd" clip-rule="evenodd" d="M88.7615 12.1274C88.2567 10.1706 87.3396 8.3431 86.0712 6.76639C84.7987 5.20354 83.2298 3.90548 81.4539 2.94624C79.6008 1.93509 77.5924 1.2365 75.5102 0.878802C73.4473 0.510025 71.3373 0.484755 69.2661 0.80402C67.2725 1.09895 65.3581 1.78754 63.6352 2.82939C61.9161 3.88697 60.4377 5.29056 59.2947 6.95023C58.0883 8.67232 57.2739 10.7294 56.8515 13.1214C56.4219 15.5497 56.4741 17.787 57.008 19.8331C57.5089 21.8001 58.4144 23.6421 59.667 25.2424C60.9215 26.8221 62.4788 28.1376 64.2484 29.1124C67.9606 31.1643 72.256 31.918 76.4486 31.2531C78.4533 30.9382 80.3765 30.2347 82.1093 29.1825C83.8476 28.1136 85.34 26.6914 86.4889 25.0087C87.6974 23.269 88.517 21.1849 88.9477 18.7566C89.3648 16.3656 89.3027 14.1559 88.7615 12.1274ZM79.7036 15.8307C79.808 15.8618 79.9047 15.9143 79.9875 15.9848C80.0703 16.0553 80.1374 16.1422 80.1846 16.24C80.2317 16.3379 80.2578 16.4444 80.2611 16.5529C80.2645 16.6614 80.2451 16.7693 80.2041 16.8699C79.0326 19.7989 75.482 22.1343 71.7015 21.0094C67.605 19.7895 65.5388 16.6471 66.1879 12.7334C66.2055 12.6239 66.2464 12.5193 66.3079 12.4268C66.3693 12.3343 66.4499 12.2559 66.5442 12.1969C66.6386 12.1379 66.7445 12.0996 66.8549 12.0847C66.9652 12.0697 67.0775 12.0785 67.1843 12.1102L79.7036 15.8307Z" fill="white"/>
<path d="M0 15.7028C0 13.3236 0.41986 11.1683 1.25958 9.23692C2.0993 7.30557 3.24692 5.65412 4.70243 4.28257C6.15795 2.91103 7.86538 1.86138 9.82473 1.13362C11.8121 0.377875 13.9254 0 16.1646 0C18.4598 0 20.6291 0.377875 22.6724 1.13362C24.0311 1.61754 25.2413 2.21902 26.3029 2.93807C27.1851 3.53554 27.2608 4.75828 26.5806 5.57829L23.263 9.57749C22.4441 10.5647 20.8962 10.4941 19.7371 9.94455C19.6806 9.91774 19.6234 9.89179 19.5655 9.86671C18.7258 9.47484 17.7881 9.27891 16.7524 9.27891C15.9127 9.27891 15.129 9.43286 14.4012 9.74075C13.6734 10.0207 13.0297 10.4405 12.4698 11.0003C11.938 11.5601 11.5182 12.2459 11.2103 13.0576C10.9024 13.8414 10.7484 14.7231 10.7484 15.7028C10.7484 16.6824 10.9024 17.5641 11.2103 18.3479C11.5462 19.1036 11.98 19.7614 12.5118 20.3212C13.0716 20.881 13.7154 21.3149 14.4432 21.6228C15.1709 21.9027 15.9407 22.0427 16.7524 22.0427C17.9 22.0427 18.8797 21.8047 19.6914 21.3289C19.7102 21.3182 19.7289 21.3076 19.7475 21.2968C20.8704 20.6492 22.4653 20.609 23.2957 21.6043L26.624 25.5938C27.287 26.3884 27.2421 27.5706 26.4194 28.1982C25.3696 28.9991 24.1766 29.6764 22.8404 30.2299C20.881 31.0137 18.6558 31.4055 16.1646 31.4055C13.9254 31.4055 11.8121 31.0277 9.82473 30.2719C7.86538 29.5162 6.15795 28.4525 4.70243 27.081C3.24692 25.6814 2.0993 24.03 1.25958 22.1266C0.41986 20.1953 0 18.054 0 15.7028Z" fill="white"/>
<path d="M29.74 2.83984C29.74 1.73528 30.6354 0.839844 31.74 0.839844H42.5457C44.0012 0.839844 45.4428 0.993792 46.8703 1.30169C48.3258 1.5816 49.6134 2.09942 50.733 2.85517C51.8806 3.58293 52.8043 4.5766 53.5041 5.83618C54.2038 7.06777 54.5537 8.62125 54.5537 10.4966C54.5537 12.316 54.1059 13.9255 53.2102 15.325C52.7049 16.0988 52.0749 16.7745 51.3201 17.3523C50.3566 18.0899 49.9223 19.4325 50.567 20.4605L54.9841 27.5033C55.8195 28.8353 54.8621 30.5659 53.2898 30.5659H46.5963C45.86 30.5659 45.1833 30.1614 44.8347 29.5129L39.7427 20.0403C39.7107 19.9807 39.6484 19.9435 39.5807 19.9435C39.4791 19.9435 39.3968 20.0258 39.3968 20.1274V28.5659C39.3968 29.6705 38.5013 30.5659 37.3968 30.5659H31.74C30.6354 30.5659 29.74 29.6705 29.74 28.5659V2.83984ZM39.3128 12.3937C39.3128 12.9459 39.7605 13.3937 40.3128 13.3937H41.2861C41.622 13.3937 41.9859 13.3657 42.3778 13.3097C42.7976 13.2537 43.1755 13.1417 43.5114 12.9738C43.8753 12.7779 44.1692 12.5259 44.3931 12.2181C44.645 11.8822 44.771 11.4483 44.771 10.9165C44.771 10.3847 44.673 9.9648 44.4771 9.6569C44.2811 9.34901 44.0292 9.12508 43.7213 8.98513C43.4134 8.81718 43.0775 8.71922 42.7137 8.69123C42.3498 8.63525 42.0139 8.60726 41.706 8.60726H40.3128C39.7605 8.60726 39.3128 9.05497 39.3128 9.60726V12.3937Z" fill="white"/>
<path fill-rule="evenodd" clip-rule="evenodd" d="M290.832 41.8906C290.648 41.1735 290.313 40.5039 289.85 39.9262C289.386 39.3536 288.813 38.8779 288.165 38.5264C287.489 38.1559 286.756 37.9 285.996 37.7689C285.243 37.6338 284.473 37.6245 283.717 37.7415C282.989 37.8496 282.29 38.1019 281.662 38.4836C281.034 38.8711 280.495 39.3854 280.077 39.9936C279.637 40.6246 279.34 41.3783 279.186 42.2548C279.029 43.1446 279.048 43.9643 279.243 44.7141C279.426 45.4348 279.756 46.1097 280.213 46.6961C280.671 47.275 281.239 47.757 281.885 48.1142C283.24 48.866 284.808 49.1422 286.338 48.8985C287.07 48.7832 287.772 48.5254 288.404 48.1399C289.039 47.7482 289.583 47.2271 290.003 46.6105C290.444 45.973 290.743 45.2094 290.9 44.3196C291.052 43.4435 291.029 42.6338 290.832 41.8906ZM287.526 43.2475C287.564 43.2589 287.599 43.2781 287.63 43.304C287.66 43.3298 287.684 43.3617 287.702 43.3975C287.719 43.4334 287.728 43.4724 287.73 43.5121C287.731 43.5519 287.724 43.5914 287.709 43.6283C287.281 44.7015 285.985 45.5573 284.606 45.1451C283.11 44.6981 282.356 43.5467 282.593 42.1126C282.6 42.0725 282.615 42.0342 282.637 42.0003C282.659 41.9664 282.689 41.9376 282.723 41.916C282.758 41.8944 282.796 41.8804 282.837 41.8749C282.877 41.8694 282.918 41.8726 282.957 41.8843L287.526 43.2475Z" fill="#4ECD5F"/>
<path fill-rule="evenodd" clip-rule="evenodd" d="M270.761 37.7923C270.834 37.7922 270.906 37.8066 270.974 37.8346C271.042 37.8626 271.103 37.9037 271.155 37.9555C271.207 38.0073 271.248 38.0688 271.276 38.1365C271.304 38.2042 271.318 38.2768 271.318 38.35V39.0025H271.36C271.637 38.5984 272.049 38.2471 272.595 37.9487C273.142 37.6503 273.768 37.5008 274.473 37.5C275.234 37.5 275.867 37.6391 276.372 37.9173C276.853 38.1745 277.266 38.5431 277.576 38.9922C277.876 39.4378 278.087 39.9374 278.198 40.4634C278.315 40.998 278.374 41.5437 278.374 42.0909V48.2106C278.374 48.3585 278.316 48.5002 278.211 48.6048C278.107 48.7094 277.965 48.7682 277.817 48.7684H274.118C273.97 48.7684 273.828 48.7096 273.723 48.605C273.619 48.5004 273.56 48.3586 273.56 48.2106V42.9255C273.56 42.3691 273.474 41.9796 273.301 41.757C273.128 41.5343 272.869 41.4226 272.522 41.4219C272.371 41.4191 272.221 41.4528 272.086 41.5199C271.95 41.5871 271.833 41.6858 271.744 41.8078C271.543 42.065 271.443 42.4373 271.443 42.9244V48.2095C271.443 48.3574 271.384 48.4993 271.279 48.6039C271.175 48.7085 271.033 48.7672 270.885 48.7672H267.207C267.059 48.7671 266.917 48.7083 266.813 48.6037C266.708 48.4991 266.649 48.3574 266.649 48.2095V38.3483C266.649 38.2008 266.708 38.0594 266.812 37.9551C266.916 37.8509 267.058 37.7923 267.205 37.7923H270.761Z" fill="#4ECD5F"/>
<path fill-rule="evenodd" clip-rule="evenodd" d="M216.318 49.1851C215.677 49.1886 215.039 49.0899 214.429 48.8928C213.857 48.7093 213.315 48.4423 212.821 48.1004C212.349 47.7718 211.932 47.3704 211.586 46.9113C211.365 46.6211 211.182 46.3043 211.041 45.9683C211.013 45.8994 210.999 45.8257 211 45.7514C211.001 45.6772 211.017 45.6039 211.047 45.5359C211.077 45.4679 211.12 45.4065 211.173 45.3553C211.227 45.3042 211.291 45.2643 211.36 45.2381L214.582 43.9999C214.704 43.951 214.839 43.9461 214.964 43.9861C215.089 44.0262 215.196 44.1085 215.267 44.2191C215.305 44.2816 215.348 44.3413 215.395 44.3978C215.467 44.4838 215.557 44.5521 215.66 44.5973C215.762 44.6426 215.874 44.6636 215.986 44.6587C216.305 44.6587 216.519 44.551 216.629 44.3356C216.74 44.1202 216.795 43.8454 216.796 43.5112V34.5595C216.796 34.4113 216.854 34.2691 216.959 34.1643C217.064 34.0594 217.206 34.0003 217.354 34H221.196C221.27 34 221.343 34.0145 221.41 34.0426C221.478 34.0707 221.54 34.1119 221.592 34.1639C221.644 34.2159 221.685 34.2775 221.713 34.3454C221.741 34.4133 221.755 34.486 221.755 34.5595V43.3052C221.753 43.9923 221.68 44.6774 221.537 45.3494C221.397 46.0307 221.118 46.6757 220.717 47.2441C220.316 47.815 219.763 48.2808 219.057 48.6416C218.352 49.0024 217.439 49.1832 216.317 49.184L216.318 49.1851Z" fill="white"/>
<path fill-rule="evenodd" clip-rule="evenodd" d="M230.256 48.7684C230.108 48.7684 229.966 48.7095 229.861 48.6045C229.756 48.4996 229.697 48.3573 229.697 48.2089V47.5587H229.655C229.379 47.9618 228.967 48.3128 228.421 48.612C227.874 48.9111 227.248 49.0605 226.542 49.0601C225.768 49.0601 225.131 48.9246 224.633 48.6536C224.155 48.3999 223.745 48.034 223.44 47.5873C223.138 47.1396 222.926 46.6374 222.816 46.1087C222.699 45.5707 222.64 45.0219 222.639 44.4715V38.3558C222.639 38.2823 222.654 38.2096 222.682 38.1417C222.71 38.0739 222.751 38.0123 222.803 37.9604C222.855 37.9085 222.917 37.8673 222.985 37.8393C223.053 37.8112 223.125 37.7968 223.199 37.7969H226.895C226.969 37.7968 227.041 37.8112 227.109 37.8393C227.177 37.8673 227.239 37.9085 227.291 37.9604C227.343 38.0123 227.384 38.0739 227.412 38.1417C227.44 38.2096 227.455 38.2823 227.455 38.3558V43.5952C227.455 44.152 227.541 44.5415 227.714 44.7638C227.887 44.986 228.146 45.0971 228.493 45.0971C228.644 45.0999 228.793 45.0663 228.929 44.9992C229.064 44.932 229.181 44.8332 229.271 44.7112C229.471 44.4543 229.571 44.0823 229.571 43.5952V38.3558C229.571 38.2823 229.586 38.2096 229.614 38.1417C229.642 38.0739 229.683 38.0123 229.735 37.9604C229.787 37.9085 229.849 37.8673 229.917 37.8393C229.985 37.8112 230.057 37.7968 230.131 37.7969H233.807C233.955 37.7969 234.097 37.8558 234.202 37.9606C234.307 38.0654 234.366 38.2075 234.366 38.3558V48.2152C234.366 48.3625 234.307 48.5038 234.203 48.608C234.099 48.7122 233.957 48.7707 233.81 48.7707L230.256 48.7684Z" fill="white"/>
<path fill-rule="evenodd" clip-rule="evenodd" d="M244.528 45.286C244.528 46.0232 244.372 46.642 244.061 47.1425C243.764 47.6278 243.359 48.0381 242.877 48.3413C242.395 48.6424 241.866 48.861 241.311 48.9881C240.781 49.1161 240.238 49.1828 239.692 49.1867C238.753 49.187 237.82 49.0499 236.921 48.7797C236.285 48.5942 235.674 48.3281 235.106 47.9879C235.036 47.9455 234.977 47.8887 234.932 47.8212C234.888 47.7537 234.858 47.6773 234.845 47.5972C234.833 47.5172 234.838 47.4353 234.86 47.3574C234.882 47.2795 234.921 47.2073 234.974 47.1459L236.56 45.2986C236.65 45.1934 236.777 45.1257 236.915 45.1087C237.052 45.0917 237.192 45.1266 237.305 45.2067C237.549 45.375 237.81 45.517 238.083 45.6302C238.493 45.8093 238.933 45.905 239.38 45.9117C239.541 45.9127 239.7 45.8809 239.847 45.8181C239.915 45.7917 239.973 45.7442 240.012 45.6826C240.052 45.621 240.07 45.5484 240.065 45.4755C240.065 45.2944 239.937 45.1518 239.681 45.048C239.425 44.9441 238.979 44.8148 238.343 44.6603C237.98 44.5711 237.625 44.4488 237.285 44.295C236.925 44.1353 236.592 43.9208 236.299 43.659C235.994 43.3851 235.744 43.0558 235.562 42.6886C235.368 42.3061 235.271 41.8507 235.272 41.3225C235.272 40.6127 235.427 40.0078 235.739 39.5077C236.038 39.019 236.442 38.6024 236.921 38.2877C237.399 37.9741 237.925 37.7411 238.478 37.5981C238.995 37.4577 239.529 37.3841 240.065 37.3789C240.916 37.3798 241.763 37.5064 242.577 37.7545C243.192 37.9401 243.605 38.185 244.044 38.4801C244.107 38.522 244.161 38.5761 244.202 38.6393C244.243 38.7024 244.272 38.7732 244.285 38.8475C244.298 38.9218 244.297 38.9981 244.28 39.0717C244.263 39.1453 244.232 39.2147 244.187 39.2759L242.874 41.081C242.796 41.1902 242.682 41.2676 242.551 41.299C242.42 41.3303 242.283 41.3135 242.164 41.2517C241.956 41.1402 241.74 41.0448 241.518 40.9662C241.178 40.8443 240.821 40.7808 240.46 40.7784C240.262 40.7722 240.065 40.804 239.879 40.872C239.726 40.9348 239.65 41.0566 239.65 41.2374C239.65 41.3759 239.737 41.4836 239.909 41.5605C240.082 41.6374 240.48 41.7382 241.103 41.8631C241.534 41.947 241.955 42.0763 242.359 42.249C242.757 42.4161 243.127 42.6409 243.459 42.9163C243.785 43.1884 244.05 43.5258 244.238 43.9068C244.431 44.2965 244.528 44.7555 244.528 45.2837L244.528 45.286Z" fill="white"/>
<path fill-rule="evenodd" clip-rule="evenodd" d="M250.588 49.0608C249.121 49.0608 248.035 48.7445 247.329 48.112C246.624 47.4794 246.271 46.4957 246.271 45.1606V41.7982C246.271 41.6499 246.212 41.5078 246.107 41.403C246.002 41.2982 245.86 41.2393 245.712 41.2393H245.294C245.146 41.2388 245.005 41.1798 244.9 41.075C244.796 40.9702 244.737 40.8283 244.737 40.6804V38.3564C244.737 38.2082 244.796 38.066 244.901 37.9612C245.006 37.8564 245.148 37.7975 245.296 37.7975H245.696C245.844 37.7975 245.986 37.7386 246.091 37.6337C246.196 37.5287 246.255 37.3864 246.255 37.2381V35.8954C246.255 35.8219 246.269 35.7492 246.297 35.6813C246.325 35.6135 246.367 35.5518 246.418 35.4998C246.47 35.4479 246.532 35.4067 246.6 35.3785C246.668 35.3504 246.74 35.3359 246.814 35.3359H250.345C250.493 35.3359 250.635 35.3949 250.74 35.4998C250.845 35.6047 250.904 35.747 250.904 35.8954V37.2381C250.904 37.3115 250.918 37.3842 250.947 37.4521C250.975 37.52 251.016 37.5817 251.068 37.6336C251.12 37.6856 251.181 37.7268 251.249 37.7549C251.317 37.783 251.39 37.7975 251.463 37.7975H252.706C252.855 37.7975 252.997 37.8564 253.102 37.9612C253.206 38.066 253.265 38.2082 253.265 38.3564V40.6804C253.265 40.7538 253.251 40.8266 253.223 40.8945C253.195 40.9623 253.154 41.024 253.102 41.076C253.05 41.1279 252.988 41.1691 252.92 41.1973C252.853 41.2254 252.78 41.2399 252.706 41.2399H251.458C251.31 41.2399 251.168 41.2987 251.063 41.4035C250.958 41.5084 250.9 41.6505 250.9 41.7987V44.1598C250.9 44.6885 251.014 45.0466 251.242 45.2342C251.47 45.4218 251.785 45.5157 252.186 45.5157C252.368 45.5213 252.55 45.5176 252.732 45.5048C253.04 45.454 253.312 45.6687 253.37 45.9752C253.484 46.5717 253.681 47.1493 253.955 47.6912C254.099 47.9921 254.053 48.3318 253.76 48.4905C252.514 49.1669 251.02 49.0613 250.588 49.0613V49.0608Z" fill="white"/>
<path fill-rule="evenodd" clip-rule="evenodd" d="M261.617 48.7691C261.469 48.7689 261.327 48.7101 261.223 48.6055C261.118 48.5009 261.06 48.3591 261.06 48.2113V47.5582H261.018C260.741 47.962 260.329 48.3133 259.783 48.6121C259.237 48.9108 258.611 49.0604 257.905 49.0608C257.13 49.0608 256.494 48.9251 255.996 48.6537C255.518 48.4001 255.109 48.0344 254.803 47.5879C254.501 47.1394 254.289 46.6362 254.18 46.1065C254.064 45.5683 254.005 45.0193 254.004 44.4687V38.3507C254.004 38.2028 254.062 38.0609 254.167 37.9563C254.272 37.8517 254.413 37.793 254.561 37.793H258.261C258.409 37.793 258.55 37.8517 258.655 37.9563C258.76 38.0609 258.818 38.2028 258.818 38.3507V43.5918C258.818 44.1479 258.905 44.5372 259.078 44.7598C259.25 44.9825 259.51 45.0938 259.856 45.0938C260.007 45.0967 260.156 45.0631 260.292 44.996C260.427 44.9288 260.545 44.83 260.634 44.7079C260.835 44.4506 260.935 44.0786 260.935 43.5918V38.3507C260.935 38.2775 260.949 38.205 260.977 38.1373C261.005 38.0696 261.046 38.0082 261.098 37.9564C261.15 37.9046 261.211 37.8635 261.279 37.8354C261.347 37.8074 261.419 37.793 261.492 37.793H265.174C265.322 37.793 265.464 37.8517 265.568 37.9563C265.673 38.0609 265.732 38.2028 265.732 38.3507V48.2159C265.732 48.2889 265.717 48.3612 265.689 48.4287C265.661 48.4961 265.62 48.5574 265.569 48.6091C265.517 48.6607 265.456 48.7016 265.388 48.7296C265.321 48.7575 265.249 48.7719 265.176 48.7719L261.617 48.7691Z" fill="#4ECD5F"/>
</svg>
